<svg xmlns="http://www.w3.org/2000/svg" viewBox="0 0 500 500"><g id="freepik--background-complete--inject-4"><path d="M263.21,77.8l-.21.3-.57.89c-.22.41-.46.94-.73,1.57a13.85,13.85,0,0,0-.58,2.29,15.46,15.46,0,0,0,.46,6.43,21.8,21.8,0,0,0,3.93,7.58,27.73,27.73,0,0,0,8,6.62,86.55,86.55,0,0,0,10.75,5.08c7.71,3.13,16.13,7.07,23.53,13.25A48.57,48.57,0,0,1,317,132.28a50.4,50.4,0,0,1,5.47,11.81c2.58,7.94,4.12,15.35,4.31,21.66a41.46,41.46,0,0,1-.49,8.47c-.16,1.24-.46,2.37-.68,3.42s-.58,2-.82,2.82a38.6,38.6,0,0,1-1.51,3.76l-.43,1a1.86,1.86,0,0,0-.13.34,2.21,2.21,0,0,0,.18-.32l.48-.94a34.58,34.58,0,0,0,1.61-3.75c.25-.85.58-1.78.86-2.82s.56-2.18.73-3.43a41.63,41.63,0,0,0,.57-8.53c-.14-6.36-1.66-13.83-4.22-21.79A50.56,50.56,0,0,0,317.4,132a48.42,48.42,0,0,0-9.32-10.6c-7.46-6.24-15.94-10.19-23.68-13.3a86.71,86.71,0,0,1-10.71-5,27.23,27.23,0,0,1-7.89-6.48,21.86,21.86,0,0,1-3.94-7.43,15.26,15.26,0,0,1-.53-6.32,12.31,12.31,0,0,1,.52-2.27c.24-.62.47-1.15.67-1.57l.53-.91A1.16,1.16,0,0,0,263.21,77.8Z" style="fill:#e0e0e0"></path><path d="M261.7,85c-6.37-3.19-11.8-9.78-15.51-15.85s-5.14-13.74-2.85-20.48,8.6-12.19,15.71-12.53c7.61-.36,14.75,5.14,17.67,12.17s.83,16.45-3.21,22.91C269,78.5,267.7,80.9,261.7,85" style="fill:#e0e0e0"></path><path d="M264.45,86.23a7.22,7.22,0,0,1-2.1-3.16l-.65.73a8.78,8.78,0,0,0-1.51,3.82c-.06.3,0,.68.23.83s.63-.1.8-.38a2.15,2.15,0,0,1,.56-.79,2.27,2.27,0,0,0,.16,1,.8.8,0,0,0,.81.48.79.79,0,0,0,.55-.79,2.18,2.18,0,0,0-.29-1,2.37,2.37,0,0,0,1,.81.82.82,0,0,0,1.06-.43C265.16,86.93,264.78,86.53,264.45,86.23Z" style="fill:#e0e0e0"></path><path d="M275.17,55.84a4.09,4.09,0,0,1,0,1.08c0,.69-.15,1.69-.35,2.91A38.91,38.91,0,0,1,267,77.36a26.86,26.86,0,0,1-1.93,2.21,4.36,4.36,0,0,1-.79.73c-.07-.06,1-1.19,2.43-3.17a44,44,0,0,0,7.74-17.37C274.94,57.35,275.08,55.83,275.17,55.84Z" style="fill:#f5f5f5"></path><path d="M273.88,47.82a5.48,5.48,0,0,1,.79,2.2,5.39,5.39,0,0,1,.27,2.32,5.31,5.31,0,0,1-.78-2.2A5.49,5.49,0,0,1,273.88,47.82Z" style="fill:#f5f5f5"></path><path d="M170.11,299.7s-.08.09-.21.29-.33.52-.58.89-.46.95-.72,1.58a13.59,13.59,0,0,0-.58,2.29,15.46,15.46,0,0,0,.45,6.43,22.15,22.15,0,0,0,3.93,7.58,27.87,27.87,0,0,0,8,6.62,85.13,85.13,0,0,0,10.75,5.07c7.72,3.13,16.14,7.07,23.53,13.25a48.67,48.67,0,0,1,9.23,10.48A50.4,50.4,0,0,1,229.34,366c2.58,7.93,4.12,15.35,4.31,21.65a42.14,42.14,0,0,1-.49,8.47c-.16,1.25-.46,2.37-.68,3.42s-.58,2-.82,2.82a38,38,0,0,1-1.51,3.77l-.43,1a1.37,1.37,0,0,0-.13.34l.17-.31.48-.95a35.14,35.14,0,0,0,1.61-3.74c.26-.85.59-1.78.87-2.83s.56-2.18.73-3.43a41.63,41.63,0,0,0,.57-8.53c-.15-6.35-1.66-13.82-4.22-21.79a50.93,50.93,0,0,0-5.5-11.94A48.92,48.92,0,0,0,215,343.3C207.52,337.07,199,333.12,191.3,330a87.57,87.57,0,0,1-10.72-5,27.47,27.47,0,0,1-7.89-6.47,22,22,0,0,1-3.94-7.43,15.62,15.62,0,0,1-.53-6.32,12.91,12.91,0,0,1,.53-2.27c.24-.63.47-1.16.67-1.58s.39-.68.53-.91A2.37,2.37,0,0,0,170.11,299.7Z" style="fill:#e0e0e0"></path><path d="M168.59,306.87c-6.36-3.19-11.79-9.78-15.51-15.85s-5.13-13.73-2.84-20.47S158.84,258.36,166,258c7.61-.37,14.74,5.13,17.67,12.17s.83,16.44-3.21,22.9c-4.56,7.3-5.82,9.7-11.82,13.78" style="fill:#e0e0e0"></path><path d="M171.34,308.12a7.14,7.14,0,0,1-2.09-3.16l-.65.73a9,9,0,0,0-1.52,3.83c-.05.3,0,.68.24.82s.63-.1.8-.37a2.18,2.18,0,0,1,.56-.8,2.24,2.24,0,0,0,.15,1,.8.8,0,0,0,.82.48.79.79,0,0,0,.55-.79,2.31,2.31,0,0,0-.29-1,2.38,2.38,0,0,0,1,.81.8.8,0,0,0,1.05-.44C172.05,308.82,171.67,308.43,171.34,308.12Z" style="fill:#e0e0e0"></path><path d="M182.07,277.73a4.12,4.12,0,0,1,0,1.08,27.13,27.13,0,0,1-.36,2.91,38.63,38.63,0,0,1-7.81,17.53,28.92,28.92,0,0,1-1.93,2.21c-.49.5-.76.76-.79.73s1-1.19,2.42-3.16a43.91,43.91,0,0,0,7.75-17.38C181.83,279.25,182,277.73,182.07,277.73Z" style="fill:#f5f5f5"></path><path d="M180.78,269.71a5.47,5.47,0,0,1,.78,2.21,5.3,5.3,0,0,1,.28,2.32,5.46,5.46,0,0,1-.78-2.2A5.34,5.34,0,0,1,180.78,269.71Z" style="fill:#f5f5f5"></path><path d="M39.48,161.4a5.83,5.83,0,0,1-.88.16,6.79,6.79,0,0,1-2.53-.19,8.09,8.09,0,0,1-3.54-1.9,7.13,7.13,0,0,1-2.34-4.72,8.2,8.2,0,0,1,2-6.07,6.27,6.27,0,0,1,3.06-2,4.62,4.62,0,0,1,1.93-.11,2.94,2.94,0,0,1,1.76,1,3.41,3.41,0,0,1,.15,4A6.11,6.11,0,0,1,35.68,154a8.53,8.53,0,0,1-8.35-1.93,8.41,8.41,0,0,1-2-8.3,7.27,7.27,0,0,1,2.28-3.56,4.6,4.6,0,0,1,1.88-.92,3.38,3.38,0,0,1,2,.2A2.77,2.77,0,0,1,33,140.85a2.81,2.81,0,0,1,.15,2,4.33,4.33,0,0,1-2.34,2.76,5.71,5.71,0,0,1-3.35.51,5.93,5.93,0,0,1-2.85-1.29,8.4,8.4,0,0,1-2.77-4.52,12.56,12.56,0,0,1-.28-4,16.8,16.8,0,0,1,.6-3.37.61.61,0,0,1,0,.22l-.11.65a20.54,20.54,0,0,0-.3,2.51,12.63,12.63,0,0,0,.33,4,8.29,8.29,0,0,0,2.73,4.36,5.71,5.71,0,0,0,2.72,1.2,5.43,5.43,0,0,0,3.17-.51,4,4,0,0,0,2.14-2.55,2.52,2.52,0,0,0-.13-1.71,2.47,2.47,0,0,0-1.3-1.18,3.17,3.17,0,0,0-1.83-.17,4.13,4.13,0,0,0-1.71.86,6.85,6.85,0,0,0-2.15,3.37,8,8,0,0,0,1.95,7.91,8.15,8.15,0,0,0,8,1.84,5.76,5.76,0,0,0,3.21-2.3,3.06,3.06,0,0,0-.1-3.52,2.69,2.69,0,0,0-1.55-.85,4.33,4.33,0,0,0-1.79.1,6,6,0,0,0-2.9,1.84,7.92,7.92,0,0,0-2,5.82,6.94,6.94,0,0,0,2.21,4.59,8.2,8.2,0,0,0,3.43,1.92,7.33,7.33,0,0,0,2.49.25C39.17,161.44,39.47,161.37,39.48,161.4Z" style="fill:#e0e0e0"></path><path d="M125.21,26.49a4.24,4.24,0,0,1,.78.41,7,7,0,0,1,1.86,1.73,8.11,8.11,0,0,1,1.57,3.7,7.14,7.14,0,0,1-1.13,5.15A8.19,8.19,0,0,1,122.94,41a6.28,6.28,0,0,1-3.61-.38,4.81,4.81,0,0,1-1.58-1.12A3,3,0,0,1,117,37.6a3.42,3.42,0,0,1,2.37-3.17,6.11,6.11,0,0,1,4.21.2,8.53,8.53,0,0,1,5.3,6.72,8.4,8.4,0,0,1-3.6,7.76,7.25,7.25,0,0,1-4,1.35,4.58,4.58,0,0,1-2-.45,3.43,3.43,0,0,1-1.48-1.44,2.71,2.71,0,0,1,.8-3.6,4.34,4.34,0,0,1,3.55-.69A5.8,5.8,0,0,1,125,46a6,6,0,0,1,1.42,2.79,8.4,8.4,0,0,1-.67,5.26,12.41,12.41,0,0,1-2.29,3.3,17,17,0,0,1-2.57,2.26s0-.06.16-.16l.49-.44a22.51,22.51,0,0,0,1.81-1.76,12.85,12.85,0,0,0,2.2-3.3,8.24,8.24,0,0,0,.6-5.1,5.7,5.7,0,0,0-1.37-2.64A5.49,5.49,0,0,0,122,44.6a4,4,0,0,0-3.27.65,2.34,2.34,0,0,0-.69,3.15,3.13,3.13,0,0,0,1.32,1.28,4.12,4.12,0,0,0,1.87.4A6.9,6.9,0,0,0,125,48.8a8,8,0,0,0,3.43-7.4A8.16,8.16,0,0,0,123.41,35a5.74,5.74,0,0,0-4-.21,3.05,3.05,0,0,0-2.12,2.81,2.6,2.6,0,0,0,.68,1.63,4.25,4.25,0,0,0,1.45,1,5.94,5.94,0,0,0,3.42.38,7.91,7.91,0,0,0,5.17-3.31,7,7,0,0,0,1.14-5,8,8,0,0,0-1.47-3.63A7.19,7.19,0,0,0,126,27C125.47,26.64,125.2,26.51,125.21,26.49Z" style="fill:#e0e0e0"></path><path d="M452,154.37a5,5,0,0,1-.66-.59,6.91,6.91,0,0,1-1.41-2.11,8.11,8.11,0,0,1-.67-4,7.13,7.13,0,0,1,2.29-4.75,8.17,8.17,0,0,1,6-2.14A6.2,6.2,0,0,1,461,142a4.56,4.56,0,0,1,1.27,1.45,3,3,0,0,1,.33,2,3.42,3.42,0,0,1-3,2.55,6.13,6.13,0,0,1-4-1.18,8.53,8.53,0,0,1-3.6-7.77,8.41,8.41,0,0,1,5.3-6.71,7.25,7.25,0,0,1,4.21-.38,4.58,4.58,0,0,1,1.88.91,3.51,3.51,0,0,1,1.1,1.74,2.77,2.77,0,0,1-.17,2,2.86,2.86,0,0,1-1.45,1.32,4.36,4.36,0,0,1-3.61-.15,5.83,5.83,0,0,1-2.47-2.34,6,6,0,0,1-.73-3,8.47,8.47,0,0,1,1.87-5,12.54,12.54,0,0,1,3-2.68,16.41,16.41,0,0,1,3-1.6.93.93,0,0,1-.2.12l-.58.31a22,22,0,0,0-2.17,1.3,12.61,12.61,0,0,0-2.9,2.69,8.23,8.23,0,0,0-1.77,4.83,5.65,5.65,0,0,0,.72,2.88,5.46,5.46,0,0,0,2.34,2.19,4,4,0,0,0,3.33.13,2.58,2.58,0,0,0,1.28-1.16,2.45,2.45,0,0,0,.12-1.75,3.06,3.06,0,0,0-1-1.54,4.16,4.16,0,0,0-1.73-.83,6.83,6.83,0,0,0-4,.37,8,8,0,0,0-5.05,6.4,8.15,8.15,0,0,0,3.43,7.4,5.73,5.73,0,0,0,3.78,1.12,3,3,0,0,0,2.72-2.24,2.58,2.58,0,0,0-.28-1.74,4.46,4.46,0,0,0-1.17-1.35,6,6,0,0,0-3.24-1.16,7.92,7.92,0,0,0-5.8,2,7,7,0,0,0-2.26,4.57,8,8,0,0,0,.59,3.88,7.27,7.27,0,0,0,1.33,2.12C451.81,154.16,452.05,154.35,452,154.37Z" style="fill:#e0e0e0"></path><path d="M244.45,301.88a5,5,0,0,1-.66-.59,6.8,6.8,0,0,1-1.41-2.12,8.09,8.09,0,0,1-.67-3.95,7.15,7.15,0,0,1,2.29-4.76,8.21,8.21,0,0,1,6-2.14,6.2,6.2,0,0,1,3.42,1.21,4.6,4.6,0,0,1,1.27,1.46,2.93,2.93,0,0,1,.33,2,3.4,3.4,0,0,1-3,2.54,6.12,6.12,0,0,1-4-1.17,8.52,8.52,0,0,1-3.6-7.77,8.4,8.4,0,0,1,5.3-6.71,7.17,7.17,0,0,1,4.21-.38,4.45,4.45,0,0,1,1.88.91,3.44,3.44,0,0,1,1.1,1.73,2.79,2.79,0,0,1-.17,2,2.84,2.84,0,0,1-1.45,1.31,4.32,4.32,0,0,1-3.61-.15,5.81,5.81,0,0,1-2.47-2.33,6,6,0,0,1-.73-3,8.45,8.45,0,0,1,1.87-5,12.39,12.39,0,0,1,3-2.69,15.87,15.87,0,0,1,3-1.59l-.2.11-.58.31a24.21,24.21,0,0,0-2.17,1.3,12.84,12.84,0,0,0-2.91,2.69,8.32,8.32,0,0,0-1.76,4.83,5.71,5.71,0,0,0,.72,2.89,5.52,5.52,0,0,0,2.34,2.19,4,4,0,0,0,3.33.13,2.52,2.52,0,0,0,1.27-1.16,2.39,2.39,0,0,0,.13-1.75,3.08,3.08,0,0,0-1-1.55,4.16,4.16,0,0,0-1.73-.83,6.92,6.92,0,0,0-4,.38,8,8,0,0,0-5.05,6.39,8.14,8.14,0,0,0,3.43,7.41,5.73,5.73,0,0,0,3.78,1.12,3,3,0,0,0,2.72-2.24,2.57,2.57,0,0,0-.28-1.74,4.24,4.24,0,0,0-1.17-1.35,5.92,5.92,0,0,0-3.24-1.16,7.88,7.88,0,0,0-5.8,2,7,7,0,0,0-2.26,4.56,8,8,0,0,0,.59,3.88,7.13,7.13,0,0,0,1.33,2.12C244.23,301.66,244.47,301.86,244.45,301.88Z" style="fill:#e0e0e0"></path><path d="M327.37,384.76a4.28,4.28,0,0,1-.66-.59,6.74,6.74,0,0,1-1.41-2.11,8.11,8.11,0,0,1-.67-4,7.13,7.13,0,0,1,2.29-4.75,8.21,8.21,0,0,1,6-2.15,6.34,6.34,0,0,1,3.43,1.21,4.72,4.72,0,0,1,1.27,1.46,2.94,2.94,0,0,1,.33,2,3.43,3.43,0,0,1-3,2.55,6.09,6.09,0,0,1-4-1.18,8.52,8.52,0,0,1-3.6-7.77,8.4,8.4,0,0,1,5.3-6.71,7.23,7.23,0,0,1,4.2-.38,4.46,4.46,0,0,1,1.88.91,3.47,3.47,0,0,1,1.1,1.74,2.82,2.82,0,0,1-.16,2,2.9,2.9,0,0,1-1.45,1.32,4.36,4.36,0,0,1-3.61-.16,5.75,5.75,0,0,1-2.47-2.33,5.88,5.88,0,0,1-.73-3,8.41,8.41,0,0,1,1.87-5,12.54,12.54,0,0,1,3-2.68,16.57,16.57,0,0,1,3-1.6s-.06.05-.19.12l-.58.3c-.51.28-1.26.69-2.17,1.3a12.91,12.91,0,0,0-2.91,2.7,8.19,8.19,0,0,0-1.76,4.82,5.59,5.59,0,0,0,.72,2.89,5.52,5.52,0,0,0,2.34,2.19A4,4,0,0,0,338,368a2.52,2.52,0,0,0,1.27-1.16,2.39,2.39,0,0,0,.13-1.75,3,3,0,0,0-1-1.54,4,4,0,0,0-1.72-.83,6.83,6.83,0,0,0-4,.37,8,8,0,0,0-5.05,6.39,8.15,8.15,0,0,0,3.42,7.41,5.77,5.77,0,0,0,3.79,1.12,3,3,0,0,0,2.72-2.24,2.64,2.64,0,0,0-.28-1.74,4.38,4.38,0,0,0-1.18-1.35,5.88,5.88,0,0,0-3.23-1.16,7.91,7.91,0,0,0-5.8,2,6.87,6.87,0,0,0-2.26,4.57,8,8,0,0,0,.59,3.88,7.28,7.28,0,0,0,1.32,2.12C327.15,384.55,327.39,384.74,327.37,384.76Z" style="fill:#e0e0e0"></path><path d="M425.17,54.11s-1.88-8-8.74-6.81l1.47-5.12S429.3,44,428,52.2Z" style="fill:#e0e0e0"></path><path d="M71.66,58.31s-1.88-8-8.73-6.81l1.46-5.12s11.4,1.86,10.09,10Z" style="fill:#e0e0e0"></path><path d="M465.29,217.23s-1.88-7.95-8.73-6.81L458,205.3s11.4,1.86,10.09,10Z" style="fill:#e0e0e0"></path><path d="M341,305s-1.88-7.94-8.73-6.8l1.46-5.12s11.4,1.85,10.09,10Z" style="fill:#e0e0e0"></path><path d="M302.49,47.87s-.06,8.16,6.87,8.68l-2.65,4.63s-10.63-4.52-7.41-12.13Z" style="fill:#e0e0e0"></path><path d="M54.65,342.21s-8.12.9-7.82,7.85L41.93,348s3.22-11.09,11.17-8.79Z" style="fill:#e0e0e0"></path><path d="M209.07,270.75s7.64,2.9,10.53-3.42l3.42,4.09s-7.92,8.4-14,2.73Z" style="fill:#e0e0e0"></path><path d="M210,123.77s7.63,2.9,10.53-3.42l3.42,4.08s-7.93,8.41-14,2.74Z" style="fill:#e0e0e0"></path><circle cx="168.41" cy="307.2" r="2.15" style="fill:#e0e0e0"></circle><circle cx="30.57" cy="267.72" r="2.15" style="fill:#e0e0e0"></circle><path d="M251.47,369.16a2.15,2.15,0,1,1-2.15-2.15A2.15,2.15,0,0,1,251.47,369.16Z" style="fill:#e0e0e0"></path><path d="M219.14,77.8A2.16,2.16,0,1,1,217,75.65,2.16,2.16,0,0,1,219.14,77.8Z" style="fill:#e0e0e0"></path><path d="M244.39,24.89a2.16,2.16,0,1,1-2.15-2.15A2.15,2.15,0,0,1,244.39,24.89Z" style="fill:#e0e0e0"></path><circle cx="383.82" cy="131.69" r="2.15" style="fill:#e0e0e0"></circle><path d="M470.36,83.07a2.15,2.15,0,1,1-2.15-2.15A2.15,2.15,0,0,1,470.36,83.07Z" style="fill:#e0e0e0"></path><path d="M162.14,359.79a2.15,2.15,0,1,1-2.15-2.15A2.15,2.15,0,0,1,162.14,359.79Z" style="fill:#e0e0e0"></path><path d="M138.71,147.24a2.15,2.15,0,1,1-2.15-2.15A2.15,2.15,0,0,1,138.71,147.24Z" style="fill:#e0e0e0"></path><path d="M67,98.51a2.16,2.16,0,1,1-2.16-2.15A2.16,2.16,0,0,1,67,98.51Z" style="fill:#e0e0e0"></path><path d="M340.25,267.27a2.16,2.16,0,1,1-2.16-2.15A2.16,2.16,0,0,1,340.25,267.27Z" style="fill:#e0e0e0"></path><path d="M464.54,277.93a2.16,2.16,0,1,1-2.15-2.16A2.16,2.16,0,0,1,464.54,277.93Z" style="fill:#e0e0e0"></path></g><g id="freepik--Floor--inject-4"><path d="M464.2,475.57c0,.15-88.69.26-198.06.26s-198.07-.11-198.07-.26,88.66-.26,198.07-.26S464.2,475.43,464.2,475.57Z" style="fill:#263238"></path></g><g id="freepik--Plant--inject-4"><polygon points="199.05 440.68 204.36 475.57 235.2 475.57 242.36 441.19 199.05 440.68" style="fill:#0EA5E9"></polygon><path d="M238.05,463c0,.1-7.9.19-17.65.19s-17.65-.09-17.65-.19,7.9-.18,17.65-.18S238.05,463,238.05,463Z" style="fill:#fafafa"></path><path d="M238.17,461.33c0,.1-8,.18-17.77.18s-17.77-.08-17.77-.18,8-.18,17.77-.18S238.17,461.23,238.17,461.33Z" style="fill:#fafafa"></path><path d="M238.11,459.39c0,.1-8,.18-17.77.18s-17.78-.08-17.78-.18,8-.18,17.78-.18S238.11,459.29,238.11,459.39Z" style="fill:#fafafa"></path><path d="M207.9,473.58a27.62,27.62,0,0,1-.94-4.39,27.07,27.07,0,0,1-.59-4.45,29,29,0,0,1,.94,4.39A27.07,27.07,0,0,1,207.9,473.58Z" style="fill:#fafafa"></path><path d="M210,473.21a34.11,34.11,0,0,1-.38-4.28,32.05,32.05,0,0,1-.2-4.3,21.28,21.28,0,0,1,.56,4.27A20.67,20.67,0,0,1,210,473.21Z" style="fill:#fafafa"></path><path d="M213.82,473.21a22.41,22.41,0,0,1-.8-4.39,21,21,0,0,1-.23-4.46,40.09,40.09,0,0,1,.59,4.41A34.78,34.78,0,0,1,213.82,473.21Z" style="fill:#fafafa"></path><path d="M216.51,473.4a35.31,35.31,0,0,1-.29-8.95,133.46,133.46,0,0,1,.29,8.95Z" style="fill:#fafafa"></path><path d="M221.26,473.21a25.25,25.25,0,0,1-.32-4.23,25.62,25.62,0,0,1,0-4.26,48.84,48.84,0,0,1,.29,8.49Z" style="fill:#fafafa"></path><path d="M224.73,473.4a55,55,0,0,1,.07-8.77,52.05,52.05,0,0,1-.07,8.77Z" style="fill:#fafafa"></path><path d="M228,472.93a29.56,29.56,0,0,1,.26-4.58,30.27,30.27,0,0,1,.62-4.55,28.14,28.14,0,0,1-.26,4.58A28.8,28.8,0,0,1,228,472.93Z" style="fill:#fafafa"></path><path d="M232.18,472.47a16.1,16.1,0,0,1,.52-3.89,15.43,15.43,0,0,1,1.15-3.76,35.76,35.76,0,0,1-.79,3.83A31.05,31.05,0,0,1,232.18,472.47Z" style="fill:#fafafa"></path><path d="M195.51,433.77v6.53a2.57,2.57,0,0,0,2.57,2.57h44.67a2.57,2.57,0,0,0,2.57-2.57v-6.53Z" style="fill:#0EA5E9"></path><g style="opacity:0.4"><polygon points="199.38 442.87 199.75 444.95 240.97 447.89 242.01 442.87 199.38 442.87"></polygon></g><path d="M202.24,433.81s-17.37-20-15.44-20.74,17.37,10.37,17.37,10.37-13.27-29.67-10.62-31.84,16.65,26.29,16.65,26.29-2.18-41.49,0-42,10.13,41.49,10.13,41.49,11.81-38.35,15.19-38.35S231.9,416,231.9,416s14-23.64,16.16-20.5-9.89,28.7-9.89,28.7,17.61-14.71,18.33-12.78-19.05,22.43-19.05,22.43Z" style="fill:#455a64"></path><path d="M199.81,403.66c.12-.06,3.2,6.55,6.88,14.75s6.57,14.89,6.45,14.94-3.2-6.55-6.88-14.75S199.69,403.71,199.81,403.66Z" style="fill:#263238"></path><path d="M213.84,407.35c.13,0,.64,5.81,1.14,13s.8,13,.67,13-.64-5.81-1.14-13S213.71,407.36,213.84,407.35Z" style="fill:#263238"></path><path d="M233.19,388.77a1.66,1.66,0,0,1-.1.47l-.38,1.32c-.36,1.21-.86,2.84-1.45,4.83-1.23,4.08-2.87,9.73-4.55,16s-3.06,12-4,16.15c-.48,2-.87,3.69-1.15,4.91-.13.54-.24,1-.33,1.34a2.92,2.92,0,0,1-.14.46,1.57,1.57,0,0,1,.05-.48q.09-.54.24-1.35c.21-1.18.55-2.87,1-4.95.88-4.17,2.22-9.91,3.9-16.2s3.38-11.93,4.68-16c.66-2,1.21-3.66,1.6-4.79l.47-1.29A2.14,2.14,0,0,1,233.19,388.77Z" style="fill:#263238"></path><path d="M241.56,410.15c.11.08-3.28,5.13-7.57,11.29s-7.85,11.09-8,11,3.28-5.13,7.57-11.29S241.45,410.08,241.56,410.15Z" style="fill:#263238"></path><path d="M208.1,433.38a6.4,6.4,0,0,1-1.52-1.08,44,44,0,0,1-3.31-3.05,41.5,41.5,0,0,1-3-3.38,6.57,6.57,0,0,1-1.05-1.55c.11-.09,1.91,2.1,4.35,4.59S208.19,433.27,208.1,433.38Z" style="fill:#263238"></path><path d="M218.64,425.43a36.18,36.18,0,0,1,.76,8.3,18.36,18.36,0,0,1-.62-4.13A19.09,19.09,0,0,1,218.64,425.43Z" style="fill:#263238"></path></g><g id="freepik--Balloons--inject-4"><path d="M96.17,152.51s-.08.09-.21.29-.34.52-.58.89-.46.94-.73,1.57a13.19,13.19,0,0,0-.57,2.29,15.44,15.44,0,0,0,.45,6.43,22,22,0,0,0,3.93,7.58,27.57,27.57,0,0,0,8,6.62,86.55,86.55,0,0,0,10.75,5.08c7.71,3.13,16.14,7.07,23.53,13.25A48.57,48.57,0,0,1,149.92,207a50.4,50.4,0,0,1,5.47,11.81c2.58,7.94,4.12,15.35,4.31,21.66a41.46,41.46,0,0,1-.49,8.47c-.15,1.24-.46,2.37-.68,3.42s-.57,2-.81,2.82c-.61,1.65-1.1,2.93-1.52,3.76l-.43,1a1.86,1.86,0,0,0-.13.34,1.65,1.65,0,0,0,.18-.32l.48-.94a34.58,34.58,0,0,0,1.61-3.75c.25-.85.59-1.78.86-2.82s.56-2.18.73-3.43a41.63,41.63,0,0,0,.57-8.53c-.14-6.36-1.66-13.83-4.22-21.79a50.56,50.56,0,0,0-5.5-11.94,48.42,48.42,0,0,0-9.32-10.6c-7.46-6.24-15.94-10.19-23.68-13.29a88.91,88.91,0,0,1-10.71-5,27.36,27.36,0,0,1-7.89-6.48,21.77,21.77,0,0,1-3.94-7.43,15.26,15.26,0,0,1-.53-6.32,13.41,13.41,0,0,1,.52-2.27c.25-.62.47-1.15.67-1.57l.53-.91C96.12,152.62,96.17,152.51,96.17,152.51Z" style="fill:#263238"></path><path d="M94.65,159.68c-6.36-3.19-11.8-9.78-15.51-15.85S74,130.09,76.29,123.35,84.9,111.16,92,110.82c7.62-.36,14.75,5.14,17.67,12.17s.83,16.45-3.21,22.91c-4.56,7.3-5.81,9.7-11.81,13.78" style="fill:#455a64"></path><path d="M97.4,160.93a7.11,7.11,0,0,1-2.09-3.16l-.65.73a8.72,8.72,0,0,0-1.52,3.82c0,.3,0,.69.23.83s.64-.1.81-.38a2.24,2.24,0,0,1,.55-.79,2.27,2.27,0,0,0,.16,1,.79.79,0,0,0,.82.48.81.81,0,0,0,.55-.79,2.37,2.37,0,0,0-.3-1,2.37,2.37,0,0,0,1,.81.82.82,0,0,0,1.06-.43C98.11,161.63,97.73,161.23,97.4,160.93Z" style="fill:#455a64"></path><path d="M96,158.73c.12.08-.2.62-.89.78s-1.22-.18-1.16-.3.52-.08,1-.21S95.88,158.63,96,158.73Z" style="fill:#263238"></path><path d="M108.13,130.54a5.25,5.25,0,0,1,0,1.08,26.63,26.63,0,0,1-.35,2.91,38.91,38.91,0,0,1-7.82,17.53A25.07,25.07,0,0,1,98,154.27a4.36,4.36,0,0,1-.79.73c-.06-.06,1-1.19,2.43-3.17a45.14,45.14,0,0,0,4.82-8.26,44.41,44.41,0,0,0,2.92-9.11C107.89,132.05,108,130.53,108.13,130.54Z" style="fill:#f5f5f5"></path><path d="M106.83,122.52a5.16,5.16,0,0,1,.79,2.2,5.21,5.21,0,0,1,.27,2.32,5.31,5.31,0,0,1-.78-2.2A5.49,5.49,0,0,1,106.83,122.52Z" style="fill:#f5f5f5"></path><path d="M414.8,102.07a2.68,2.68,0,0,1,.21.29c.16.22.35.51.6.88a17.19,17.19,0,0,1,.77,1.55,12.46,12.46,0,0,1,.63,2.27,15.31,15.31,0,0,1-.28,6.44,21.93,21.93,0,0,1-3.74,7.68A27.78,27.78,0,0,1,405.2,128a86.06,86.06,0,0,1-10.61,5.35c-7.64,3.32-16,7.48-23.19,13.85a48.74,48.74,0,0,0-8.95,10.7,50.58,50.58,0,0,0-5.17,11.95c-2.37,8-3.73,15.45-3.76,21.76a42.25,42.25,0,0,0,.71,8.45c.19,1.24.52,2.36.77,3.4s.62,2,.89,2.8c.64,1.64,1.17,2.91,1.6,3.73.2.4.35.71.46.95a1.6,1.6,0,0,1,.14.34,2.11,2.11,0,0,1-.19-.31l-.5-.94a33.75,33.75,0,0,1-1.7-3.7c-.28-.84-.64-1.76-.94-2.8s-.61-2.17-.82-3.41a41.78,41.78,0,0,1-.79-8.51c0-6.36,1.31-13.87,3.67-21.9A50.58,50.58,0,0,1,362,157.64a48.59,48.59,0,0,1,9.05-10.83c7.3-6.43,15.68-10.6,23.33-13.9A86.21,86.21,0,0,0,405,127.63,27.57,27.57,0,0,0,412.7,121a22.09,22.09,0,0,0,3.75-7.53,15.47,15.47,0,0,0,.36-6.33,12.77,12.77,0,0,0-.58-2.26c-.26-.62-.5-1.14-.71-1.55l-.55-.9A1.59,1.59,0,0,1,414.8,102.07Z" style="fill:#263238"></path><path d="M417.6,114.08c-5.78-4.15-10.11-11.52-12.82-18.09s-2.91-14.38.41-20.67,10.41-10.68,17.49-9.9c7.57.83,13.75,7.39,15.53,14.8s-1.77,16.37-6.78,22.11c-5.65,6.49-7.27,8.66-13.83,11.75" style="fill:#0EA5E9"></path><path d="M419.89,115a7.07,7.07,0,0,1-1.57-3.45l-.76.62a8.86,8.86,0,0,0-2.1,3.54c-.1.29-.15.67.1.85s.64,0,.85-.24.38-.57.68-.7a2.3,2.3,0,0,0,0,1,.82.82,0,0,0,.74.61.8.8,0,0,0,.66-.7,2.38,2.38,0,0,0-.13-1,2.42,2.42,0,0,0,.83,1,.82.82,0,0,0,1.11-.27C420.48,115.79,420.16,115.34,419.89,115Z" style="fill:#0EA5E9"></path><path d="M418.84,112.59c.11.09-.29.58-1,.63s-1.18-.37-1.09-.48.52,0,1.05,0S418.75,112.47,418.84,112.59Z" style="fill:#263238"></path><path d="M435.26,86.66a4,4,0,0,1-.18,1.07,27.49,27.49,0,0,1-.81,2.81,38.89,38.89,0,0,1-10.48,16.09,26.17,26.17,0,0,1-2.25,1.87,3.85,3.85,0,0,1-.89.6c-.06-.07,1.14-1,2.89-2.74a44,44,0,0,0,10.38-15.94C434.79,88.12,435.17,86.64,435.26,86.66Z" style="fill:#f5f5f5"></path><path d="M435.25,78.54a5.41,5.41,0,0,1,.43,2.3,5.5,5.5,0,0,1-.09,2.33,5.17,5.17,0,0,1-.43-2.29A5.38,5.38,0,0,1,435.25,78.54Z" style="fill:#f5f5f5"></path><path d="M348.34,64.76a3.46,3.46,0,0,1,.16.41l.42,1.22c.38,1.06.87,2.66,1.45,4.73a80.53,80.53,0,0,1,2.75,18,66,66,0,0,1-.75,12.56c-.19,1.12-.37,2.26-.64,3.4l-.39,1.73-.48,1.73c-.64,2.33-1.53,4.66-2.36,7-1.69,4.78-3.14,9.92-5.29,15a51,51,0,0,1-3.88,7.52,76.35,76.35,0,0,1-5.15,7,79.41,79.41,0,0,0-4.94,7.11c-1.53,2.4-2.91,4.85-4.24,7.26a156.11,156.11,0,0,0-6.84,14.37,96.41,96.41,0,0,0-4.61,13.62,63.65,63.65,0,0,0-1.85,12.36A24.69,24.69,0,0,0,313.18,210a17.91,17.91,0,0,0,4.32,6.39,19.45,19.45,0,0,0,2.19,1.8,16,16,0,0,0,1.74,1.15l1.1.65a2,2,0,0,1,.37.24,2.2,2.2,0,0,1-.39-.19l-1.14-.61a14,14,0,0,1-1.77-1.12,17.33,17.33,0,0,1-2.24-1.78,17.88,17.88,0,0,1-4.45-6.42,24.89,24.89,0,0,1-1.58-10.24,63.66,63.66,0,0,1,1.8-12.46,95.32,95.32,0,0,1,4.59-13.69,151.75,151.75,0,0,1,6.83-14.43c1.33-2.42,2.71-4.89,4.25-7.3a79.7,79.7,0,0,1,5-7.15,77.24,77.24,0,0,0,5.12-7,52,52,0,0,0,3.85-7.44c2.13-5.08,3.6-10.22,5.31-15,.84-2.4,1.73-4.71,2.37-7l.48-1.71.39-1.72c.28-1.13.46-2.26.65-3.37a66.14,66.14,0,0,0,.81-12.48,82.67,82.67,0,0,0-2.58-17.94c-.55-2.08-1-3.68-1.35-4.76-.16-.52-.28-.93-.37-1.23A2.5,2.5,0,0,1,348.34,64.76Z" style="fill:#263238"></path><path d="M351.81,82.24c-8.57-3.86-16.1-12.28-21.34-20.09S323,44.29,325.61,35.27s10.7-16.56,20.06-17.4c10-.89,19.75,6,24,15.11s2,21.67-3,30.42c-5.63,9.89-7.15,13.12-14.85,18.84" style="fill:#455a64"></path><path d="M355.51,83.74a9.39,9.39,0,0,1-2.93-4.06l-.82,1c-1,1-1.62,3.74-1.8,5.13,0,.4,0,.91.35,1.08s.83-.16,1-.54a3.08,3.08,0,0,1,.69-1.08,3,3,0,0,0,.27,1.31,1,1,0,0,0,1.1.59,1,1,0,0,0,.69-1.07,3.07,3.07,0,0,0-.45-1.29,3.14,3.14,0,0,0,1.33,1,1.07,1.07,0,0,0,1.37-.63C356.48,84.63,356,84.13,355.51,83.74Z" style="fill:#455a64"></path><path d="M353.53,80.91c.13.07-.28.76-1.16,1s-1.58-.13-1.51-.26.66,0,1.37-.25S353.42,80.81,353.53,80.91Z" style="fill:#263238"></path><g style="opacity:0.30000000000000004"><path d="M338.11,23.92c-9.21,6-11.87,16.06-8.7,26.59,1,3.36,2.81,6.64,6.09,8.25a7.33,7.33,0,0,0,2.78.75c4.89.31,7.25-3.93,7.65-7.92.29-3-.27-5.92-.35-8.89s.43-6.15,2.45-8.32,5.41-3.21,5.59-6.57a5.24,5.24,0,0,0-2-4.19A8.71,8.71,0,0,0,348.33,22a12.25,12.25,0,0,0-9.1,1.33Z" style="fill:#fff"></path></g><path d="M368,43a6.74,6.74,0,0,1,0,1.42,38.52,38.52,0,0,1-.34,3.85A50.57,50.57,0,0,1,366.63,54a57.88,57.88,0,0,1-2.15,6.7,59.06,59.06,0,0,1-3,6.36,50.36,50.36,0,0,1-3.1,4.84,37.8,37.8,0,0,1-2.4,3,7.49,7.49,0,0,1-1,1,8.11,8.11,0,0,1,.82-1.16c.56-.71,1.34-1.77,2.26-3.11s1.94-3,3-4.87a61.13,61.13,0,0,0,3-6.31,60.62,60.62,0,0,0,2.17-6.63,54.73,54.73,0,0,0,1.17-5.58c.26-1.6.42-2.91.5-3.82A7.4,7.4,0,0,1,368,43Z" style="fill:#fff"></path><path d="M365.89,32.51A9.34,9.34,0,0,1,367,35.4a9.55,9.55,0,0,1,.58,3,9.23,9.23,0,0,1-1.08-2.89A9.33,9.33,0,0,1,365.89,32.51Z" style="fill:#fff"></path><path d="M165.79,78.7a1.47,1.47,0,0,0-.14.36c-.1.26-.22.62-.38,1.08-.34.94-.77,2.36-1.28,4.2a71.27,71.27,0,0,0-2.44,16,57.3,57.3,0,0,0,.67,11.14c.16,1,.32,2,.56,3,.12.5.23,1,.34,1.53s.29,1,.43,1.54c.56,2.07,1.36,4.13,2.09,6.25,1.5,4.25,2.79,8.81,4.7,13.36a45.4,45.4,0,0,0,3.45,6.67,67.35,67.35,0,0,0,4.56,6.22,69.17,69.17,0,0,1,4.38,6.31c1.36,2.13,2.58,4.3,3.77,6.44a139.14,139.14,0,0,1,6.06,12.75,86.19,86.19,0,0,1,4.1,12.08,57.19,57.19,0,0,1,1.64,11,21.79,21.79,0,0,1-1.32,9,16,16,0,0,1-3.82,5.67,17.13,17.13,0,0,1-1.95,1.59,13.7,13.7,0,0,1-1.54,1l-1,.58a1.41,1.41,0,0,0-.32.21,2.28,2.28,0,0,0,.35-.17l1-.54a12.8,12.8,0,0,0,1.58-1,17.06,17.06,0,0,0,2-1.58,15.93,15.93,0,0,0,3.94-5.7,22,22,0,0,0,1.4-9.08A55.41,55.41,0,0,0,197,187.52,86.25,86.25,0,0,0,193,175.37a137.27,137.27,0,0,0-6.06-12.8c-1.19-2.15-2.41-4.34-3.77-6.48a73.53,73.53,0,0,0-4.41-6.34,65.3,65.3,0,0,1-4.54-6.19,45,45,0,0,1-3.43-6.6c-1.89-4.51-3.19-9.07-4.7-13.32-.75-2.13-1.54-4.17-2.11-6.22-.14-.51-.28-1-.43-1.53s-.23-1-.34-1.52c-.25-1-.4-2-.58-3a58.36,58.36,0,0,1-.71-11.07,73.32,73.32,0,0,1,2.28-15.92c.49-1.85.89-3.27,1.2-4.22l.33-1.1A2.54,2.54,0,0,0,165.79,78.7Z" style="fill:#263238"></path><path d="M161.33,94.63C153.72,91.2,147,83.74,142.39,76.8S135.72,61,138.08,53s9.49-14.69,17.8-15.43c8.9-.8,17.52,5.3,21.29,13.41s1.76,19.22-2.66,27c-5,8.77-6.35,11.64-13.18,16.71" style="fill:#0EA5E9"></path><path d="M164.61,96a8.36,8.36,0,0,1-2.6-3.6l-.73.89c-.85.91-1.44,3.32-1.6,4.55,0,.36,0,.8.32,1s.74-.15.92-.48a2.63,2.63,0,0,1,.61-1,2.76,2.76,0,0,0,.24,1.17.82.82,0,0,0,1.58-.43,2.72,2.72,0,0,0-.39-1.15,2.82,2.82,0,0,0,1.18.91,1,1,0,0,0,1.21-.56C165.47,96.75,165,96.31,164.61,96Z" style="fill:#0EA5E9"></path><path d="M162.86,93.45c.1.06-.25.67-1,.89s-1.4-.12-1.34-.23.59,0,1.22-.22S162.76,93.36,162.86,93.45Z" style="fill:#263238"></path><g style="opacity:0.30000000000000004"><path d="M149.17,42.88c-8.17,5.33-10.53,14.25-7.72,23.6.9,3,2.49,5.89,5.41,7.32a6.63,6.63,0,0,0,2.46.67c4.34.27,6.44-3.5,6.79-7,.25-2.62-.24-5.25-.31-7.88s.38-5.46,2.17-7.38,4.8-2.85,5-5.84a4.62,4.62,0,0,0-1.76-3.71,7.53,7.53,0,0,0-2.93-1.48,10.86,10.86,0,0,0-8.08,1.18Z" style="fill:#fff"></path></g><path d="M175.72,59.85a6.79,6.79,0,0,1,0,1.26,33.16,33.16,0,0,1-.29,3.42,46.62,46.62,0,0,1-1,5,50.27,50.27,0,0,1-1.92,5.95,49.32,49.32,0,0,1-2.69,5.63,44.69,44.69,0,0,1-2.75,4.3c-.85,1.17-1.59,2.09-2.13,2.69a6.07,6.07,0,0,1-.87.91,7.51,7.51,0,0,1,.73-1c.5-.64,1.19-1.58,2-2.77s1.72-2.65,2.65-4.31a56.78,56.78,0,0,0,2.63-5.61,52.81,52.81,0,0,0,1.93-5.88c.47-1.84.82-3.52,1-5s.37-2.58.44-3.39A7,7,0,0,1,175.72,59.85Z" style="fill:#fff"></path><path d="M173.82,50.51a8.27,8.27,0,0,1,1,2.56,8.19,8.19,0,0,1,.51,2.69,8.27,8.27,0,0,1-.95-2.56A8.19,8.19,0,0,1,173.82,50.51Z" style="fill:#fff"></path><path d="M295,438.39l-.31-.16-.87-.51a11.09,11.09,0,0,1-2.71-2.77,14.38,14.38,0,0,1-2.17-5.72,20.65,20.65,0,0,1,.39-8.11,42.64,42.64,0,0,1,3.83-9.07,102.29,102.29,0,0,0,5-10.05,35.56,35.56,0,0,0,2.32-12.09,53.87,53.87,0,0,0-1.62-13.17c-2.15-8.9-5.74-16.9-8.67-24.27a100.59,100.59,0,0,1-6.1-20.2,53.74,53.74,0,0,1-.68-8.1c0-1.19.08-2.31.17-3.33s.21-1.95.37-2.78l.45-2.19c.16-.63.34-1.15.46-1.57s.22-.72.3-1a1.68,1.68,0,0,1,.12-.33,1.91,1.91,0,0,1-.07.34c-.06.25-.15.57-.25,1s-.26.95-.41,1.58-.25,1.37-.4,2.19-.2,1.75-.32,2.76-.1,2.12-.12,3.31a52.05,52.05,0,0,0,.74,8,102.31,102.31,0,0,0,6.19,20.09c2.95,7.35,6.56,15.37,8.73,24.33a53.76,53.76,0,0,1,1.62,13.3,36,36,0,0,1-2.38,12.25,99.59,99.59,0,0,1-5.1,10.08,43,43,0,0,0-3.86,9,20.61,20.61,0,0,0-.45,8,14.42,14.42,0,0,0,2.05,5.66,11.4,11.4,0,0,0,2.61,2.79l.83.55A1.75,1.75,0,0,1,295,438.39Z" style="fill:#263238"></path><path d="M282.63,332.11c-8.79-4-16.51-12.6-21.88-20.61s-7.72-18.31-5-27.56,11-17,20.58-17.85c10.28-.92,20.25,6.14,24.6,15.5s2,22.22-3.08,31.2c-5.77,10.14-7.33,13.46-15.23,19.32" style="fill:#0EA5E9"></path><path d="M286.43,333.65a9.59,9.59,0,0,1-3-4.17l-.84,1c-1,1.05-1.67,3.83-1.85,5.26-.05.41,0,.93.37,1.11s.85-.17,1.06-.56.35-.85.71-1.1a3,3,0,0,0,.27,1.34,1.08,1.08,0,0,0,1.13.61,1.07,1.07,0,0,0,.7-1.1,3,3,0,0,0-.45-1.32,3.27,3.27,0,0,0,1.36,1,1.11,1.11,0,0,0,1.41-.64C287.42,334.55,286.89,334,286.43,333.65Z" style="fill:#0EA5E9"></path><path d="M284.4,330.74c.12.08-.29.78-1.2,1s-1.62-.14-1.55-.26.69-.05,1.41-.26S284.28,330.64,284.4,330.74Z" style="fill:#263238"></path><g style="opacity:0.30000000000000004"><path d="M268.58,272.29c-9.45,6.17-12.17,16.47-8.92,27.28,1,3.44,2.88,6.8,6.25,8.46a7.47,7.47,0,0,0,2.84.77c5,.31,7.44-4,7.85-8.13.3-3-.28-6.07-.36-9.11s.44-6.31,2.52-8.54,5.54-3.29,5.72-6.74a5.3,5.3,0,0,0-2-4.29,8.64,8.64,0,0,0-3.39-1.71,12.51,12.51,0,0,0-9.33,1.36Z" style="fill:#fff"></path></g><path d="M299.26,291.9a7.15,7.15,0,0,1,0,1.46c0,.93-.13,2.29-.34,3.95a53.66,53.66,0,0,1-1.1,5.79,58.41,58.41,0,0,1-2.21,6.88,61.14,61.14,0,0,1-3.11,6.52,53.6,53.6,0,0,1-3.18,5,38.25,38.25,0,0,1-2.47,3.11,8.43,8.43,0,0,1-1,1.06,6.79,6.79,0,0,1,.84-1.19c.58-.73,1.38-1.82,2.32-3.2s2-3.06,3.05-5A58.23,58.23,0,0,0,297.35,303c.55-2.13.95-4.08,1.2-5.72s.43-3,.51-3.92A9.27,9.27,0,0,1,299.26,291.9Z" style="fill:#fff"></path><path d="M297.07,281.11a9.45,9.45,0,0,1,1.1,3,9.55,9.55,0,0,1,.59,3.11,19,19,0,0,1-1.69-6.07Z" style="fill:#fff"></path></g><g id="freepik--speech-bubble--inject-4"><path d="M157.11,169.75c-.13-1.35-17.18-41.15-17.18-41.15l33.69,4.49,8.87-29.1L209.72,120,226.57,87l26.26,26.62,22.49-31.33L299.44,115l20.95-28.44,15.73,30.82,31.55-3.5-14.42,32.23,36.38,23L349.44,179.9,354,212.72l-29.3-10.84L314.38,232l-27.6-31-7.43,44.49-30.56-29.86-23.22,40.81-17.06-37.22-38.62,26.32-.89-42.4L104.7,203Z" style="fill:#fafafa"></path><path d="M157.11,169.75s-1.15.75-3.42,2.2-5.65,3.61-10.09,6.43l-38.83,24.68-.07-.22L169,203h.17v.17c.28,13.06.59,27.31.91,42.39l-.29-.15L208.4,219l.2-.14.1.22c5.35,11.67,11.12,24.24,17.08,37.22l-.4,0,23.2-40.81.15-.27.22.21,30.57,29.86-.41.13c2.34-14,4.86-29.11,7.42-44.5l.09-.52.35.4,27.6,31.05-.43.08c3.25-9.5,6.75-19.78,10.3-30.15l.08-.25.25.09,29.3,10.84-.35.28c-1.16-8.36-2.4-17.33-3.64-26.36l-.9-6.46,0-.23.22-.06,40.19-10.81-.07.47-36.38-23-.19-.12.09-.2,14.43-32.23.26.35-31.55,3.5-.17,0-.08-.15L320.17,86.69l.41,0-20.95,28.44-.19.26-.19-.26Q286.8,98.23,275.14,82.4h.36L253,113.72l-.14.2-.18-.17L226.43,87.11l.32,0q-8.87,17.35-16.87,33.06l-.09.17-.16-.1-27.22-16.07.23-.09-8.89,29.1,0,.11h-.12l-33.69-4.53.11-.14c5.67,13.28,10,23.56,12.89,30.53,1.44,3.48,2.53,6.13,3.23,7.93.35.89.59,1.58.77,2s.18.62.2.7c0-.08-.09-.26-.23-.69s-.44-1.13-.8-2c-.71-1.79-1.82-4.43-3.27-7.91-2.92-6.95-7.28-17.22-13-30.49l-.07-.17.18,0,33.7,4.47-.15.09,8.85-29.11.06-.19.17.1,27.24,16-.25.07q8-15.69,16.84-33.07l.12-.24.19.19L253,113.45l-.32,0,22.48-31.34.18-.25.18.25,24.13,32.74h-.38l20.94-28.45.23-.31.18.35q7.72,15.11,15.74,30.82l-.25-.13,31.55-3.51.44-.05-.18.41-14.42,32.23-.09-.33,36.38,23,.5.32-.57.15-40.19,10.81.19-.28c.3,2.15.59,4.3.89,6.46,1.25,9,2.49,18,3.64,26.36l.06.43-.4-.15-29.3-10.84.34-.16c-3.55,10.37-7.06,20.65-10.31,30.15l-.14.41-.29-.32-27.6-31.06L287,201c-2.57,15.38-5.1,30.49-7.44,44.49l-.07.46-.34-.32-30.56-29.87.37,0-23.22,40.8-.22.38-.18-.39L208.32,219.3l.31.08L170,245.69l-.29.19v-.35c-.31-15.08-.6-29.33-.87-42.4l.17.17-64.3-.22h-.42l.36-.22,38.86-24.55,10.14-6.39Z" style="fill:#263238"></path><path d="M267.63,133.54l2,31a5,5,0,0,0,4.72,4.71h0a5,5,0,0,0,5.3-4.47l3.45-31.17a4,4,0,0,0-4-4.38l-7.57.1A4,4,0,0,0,267.63,133.54Z" style="fill:#e0e0e0"></path><path d="M282.53,186.7a7.57,7.57,0,1,1-4.79-9.57A7.57,7.57,0,0,1,282.53,186.7Z" style="fill:#e0e0e0"></path><path d="M251.38,173,233.87,157.6a3.78,3.78,0,0,0-5,0h0a3.77,3.77,0,0,0-.44,5.18l14.72,18.38a3,3,0,0,0,4.44.21l4-4.07A3,3,0,0,0,251.38,173Z" style="fill:#e0e0e0"></path><path d="M215.24,152.71a5.68,5.68,0,1,1,7.62,2.53A5.68,5.68,0,0,1,215.24,152.71Z" style="fill:#e0e0e0"></path></g><g id="freepik--Text--inject-4"><path d="M194.06,177.76,188.44,179l-.54,2.84-2.15.47,2.6-12.35,2.06-.44,7.53,10.13-2.19.47ZM193,176.27l-3.19-4.45-1,5.37Z"></path><path d="M206.9,165.9l2.45,11.24-1.72.38-7.86-6.26,1.67,7.61-2.07.45-2.46-11.24,1.72-.37,7.86,6.26-1.67-7.62Z"></path><path d="M219.9,163.06l2.46,11.24-1.72.38-7.86-6.26,1.66,7.61-2.07.45-2.46-11.24,1.72-.37,7.86,6.25-1.66-7.61Z"></path><path d="M223.34,168.2a6.21,6.21,0,1,1,7.32,4.45A5.9,5.9,0,0,1,223.34,168.2Zm10-2.19a4,4,0,1,0-3.09,4.81A3.93,3.93,0,0,0,233.35,166Z"></path><path d="M237.73,165.81l-1.39-6.34,2.09-.46,1.37,6.26c.5,2.32,1.76,3.08,3.58,2.69s2.62-1.62,2.11-3.93l-1.36-6.26,2.05-.45,1.39,6.34c.71,3.27-.74,5.46-3.81,6.13S238.44,169.09,237.73,165.81Z"></path><path d="M259.09,154.5l2.46,11.24-1.72.37L252,159.85l1.66,7.62-2.07.45-2.46-11.24,1.72-.38,7.86,6.26L257,155Z"></path><path d="M262.53,159.63a6.23,6.23,0,0,1,9.62-6.19L271.08,155a4,4,0,0,0-3.29-.66,4,4,0,1,0,4.43,5.91l1.63,1a6.22,6.22,0,0,1-11.32-1.62Z"></path><path d="M284.28,158.93l.38,1.75-8.43,1.85-2.45-11.24,8.2-1.8.39,1.75-6.12,1.34.64,2.92,5.42-1.18.38,1.71-5.43,1.19.68,3.1Z"></path><path d="M297.32,157.92l-1.65-7.45-2.34,7-.93.21-5-5.26,1.6,7.35-2,.44-2.45-11.24,1.71-.38,6.09,6.47,2.76-8.4,1.72-.38,2.47,11.24Z"></path><path d="M310.37,153.23l.38,1.75-8.43,1.84-2.45-11.23,8.2-1.8.38,1.75-6.11,1.34.64,2.92,5.42-1.19.38,1.72-5.43,1.19.68,3.1Z"></path><path d="M320.61,141.05l2.46,11.24-1.72.38-7.86-6.26,1.66,7.61-2.07.45-2.46-11.24,1.72-.37,7.86,6.25-1.66-7.61Z"></path><path d="M326.29,141.66l-3.72.81-.39-1.76,9.54-2.09.39,1.77-3.73.81,2.07,9.48-2.09.45Z"></path></g><g id="freepik--character-2--inject-4"><polygon points="411.14 463.89 410.75 454.12 393.73 453.48 393.98 465.43 400.18 469.17 411.14 463.89" style="fill:#ffbe9d"></polygon><path d="M393.61,463.21v1.12s-18.9,7.8-19.07,11.4l37.68-.55-.7-12.53A21.53,21.53,0,0,1,393.61,463.21Z" style="fill:#0EA5E9"></path><g style="opacity:0.6000000000000001"><path d="M407.77,466.71a1.54,1.54,0,0,1,1.09,1.74,1.47,1.47,0,0,1-1.71,1.1A1.62,1.62,0,0,1,406,467.7a1.54,1.54,0,0,1,1.92-.94" style="fill:#fff"></path></g><g style="opacity:0.6000000000000001"><path d="M412.23,475.18l-.17-3L376,473.8s-1.67.76-1.46,1.93Z" style="fill:#fff"></path></g><path d="M393.49,464.44c0,.18.93.25,1.84.83s1.41,1.34,1.58,1.27-.12-1.14-1.24-1.82S393.45,464.27,393.49,464.44Z" style="fill:#263238"></path><path d="M389.56,466.13c0,.18.76.48,1.4,1.25s.83,1.59,1,1.58.29-1.06-.52-2S389.56,466,389.56,466.13Z" style="fill:#263238"></path><path d="M387.39,470.89c.16,0,.41-.88-.08-1.88s-1.35-1.39-1.43-1.24.46.69.85,1.51S387.2,470.88,387.39,470.89Z" style="fill:#263238"></path><polygon points="434.4 442.98 434.14 472.22 420.66 471.25 417.7 442.77 434.4 442.98" style="fill:#ffbe9d"></polygon><path d="M420.2,465.51s9.47,6.58,14.08.91l1.19,2.76,5.36,19.61a2.63,2.63,0,0,1-1.53,3.15,2.69,2.69,0,0,1-2.76-.52c-3.9-3.63-18.16-17-18-18.84l.06-4.82a2.44,2.44,0,0,1,1.61-2.25Z" style="fill:#0EA5E9"></path><g style="opacity:0.6000000000000001"><path d="M438.84,492.07,418.52,470.9V472a2.91,2.91,0,0,0,1,2.32c1.65,2.17,6.2,7,17,17.15a2.68,2.68,0,0,0,2.38.65Z" style="fill:#fff"></path></g><g style="opacity:0.6000000000000001"><path d="M421.51,467.77a1.52,1.52,0,0,1,.44,2,1.54,1.54,0,0,1-2,.44,1.46,1.46,0,1,1,1.72-2.35" style="fill:#fff"></path></g><path d="M433,481.24a7.67,7.67,0,0,1,2.23-1.94,8.18,8.18,0,0,1,2.93-.55c0-.06-.3-.25-.9-.33a4.16,4.16,0,0,0-2.28.39,4,4,0,0,0-1.71,1.53C433,480.85,432.93,481.22,433,481.24Z" style="fill:#263238"></path><path d="M434.81,484.56a19.11,19.11,0,0,1,2.26-1.08,21.7,21.7,0,0,1,2.48-.31,3,3,0,0,0-2.65-.21C435.41,483.39,434.68,484.49,434.81,484.56Z" style="fill:#263238"></path><path d="M429.6,477A26.71,26.71,0,0,1,433,475.1a25.53,25.53,0,0,1,3.77-.86,5.84,5.84,0,0,0-4,.35A5.75,5.75,0,0,0,429.6,477Z" style="fill:#263238"></path><path d="M429.16,471c.07.15,1.48-.42,3.31-.49s3.28.36,3.34.2a6.69,6.69,0,0,0-6.65.29Z" style="fill:#263238"></path><path d="M433.51,470.47a2.07,2.07,0,0,0-.14-.93,6.52,6.52,0,0,0-1.21-2.28,2.91,2.91,0,0,0-1.51-1.13,1,1,0,0,0-1.12.43,1.62,1.62,0,0,0-.19,1.17,3.67,3.67,0,0,0,3.8,2.7,4.26,4.26,0,0,0,3.73-2.89,1.4,1.4,0,0,0-.16-1.2,1.06,1.06,0,0,0-1.16-.33,3.73,3.73,0,0,0-1.49,1.14,7.47,7.47,0,0,0-1.35,2.2,2.24,2.24,0,0,0-.22.91,11.28,11.28,0,0,1,1.87-2.85,3.29,3.29,0,0,1,1.32-1,.57.57,0,0,1,.63.17,1,1,0,0,1,.06.8,3.81,3.81,0,0,1-3.26,2.47,3.21,3.21,0,0,1-3.26-2.25,1.17,1.17,0,0,1,.09-.82.57.57,0,0,1,.62-.25,2.66,2.66,0,0,1,1.29.93A9.35,9.35,0,0,1,433.51,470.47Z" style="fill:#263238"></path><path d="M384.69,285.57l-.24,3.23L376.84,303s-3.37,21.29-1,35.34c2.48,14.86,5.57,47.62,5.82,54.83s9.84,65.37,9.84,65.37l20.83-.57s-4-65.19-4.41-73.68-.32-45.19-.32-45.19l-.05-48.7-24.24-5.65" style="fill:#263238"></path><path d="M415.69,457.49l-8.11-121.84-4.4-45.49,27-7.65,1.07,5.61s10.33,24.23,10.13,31.4c-.58,20.09-2.08,70.58-2.08,70.58l-3.35,66.6Z" style="fill:#263238"></path><path d="M405.77,294.13a1.26,1.26,0,0,1,.08.45c0,.35.08.77.14,1.28.1,1.12.23,2.74.35,4.74.25,4,.46,9.53.66,15.64s.39,11.58.53,15.65c.08,1.95.15,3.55.2,4.74,0,.51,0,.94,0,1.29a2,2,0,0,1,0,.45,1.23,1.23,0,0,1-.08-.44c0-.35-.08-.78-.14-1.29-.1-1.11-.23-2.73-.35-4.73-.25-4-.46-9.54-.66-15.65s-.39-11.57-.53-15.65c-.08-1.94-.15-3.54-.2-4.74,0-.51,0-.94,0-1.29A2,2,0,0,1,405.77,294.13Z" style="fill:#455a64"></path><path d="M436.92,304.61a2.48,2.48,0,0,1-.71.29,6.94,6.94,0,0,1-.87.24,9.83,9.83,0,0,1-1.17.22,14.64,14.64,0,0,1-3.11.11,17.35,17.35,0,0,1-3.75-.71,17.17,17.17,0,0,1-3.48-1.56,14.93,14.93,0,0,1-2.49-1.88,9.32,9.32,0,0,1-.83-.85,6.07,6.07,0,0,1-.58-.69c-.29-.4-.44-.63-.41-.65s.73.81,2.05,1.94a16.82,16.82,0,0,0,2.48,1.75,19,19,0,0,0,3.4,1.49,18.28,18.28,0,0,0,3.64.72,17.07,17.07,0,0,0,3,0C435.85,304.86,436.89,304.52,436.92,304.61Z" style="fill:#455a64"></path><path d="M387.26,296.37a5.43,5.43,0,0,1-.83,1.76A14.34,14.34,0,0,1,379.2,304a5.46,5.46,0,0,1-1.89.44,23.45,23.45,0,0,0,5.69-3.12A23.08,23.08,0,0,0,387.26,296.37Z" style="fill:#455a64"></path><path d="M401.32,400.93a11.73,11.73,0,0,1-2.39-1c-1.44-.7-3.39-1.75-5.47-3a61.32,61.32,0,0,1-5.16-3.54,12.76,12.76,0,0,1-2-1.68,16.49,16.49,0,0,1,2.18,1.41c1.31.9,3.14,2.13,5.21,3.41s4,2.36,5.38,3.13A17.87,17.87,0,0,1,401.32,400.93Z" style="fill:#455a64"></path><path d="M412.41,171l-18.06-4.87c-5.8-.71-9.77,6.38-10.23,12.21-.52,6.46-.88,14.38-.19,19.22,1.39,9.74,8.81,11.1,8.81,11.1s0,0,0,5.57c0,5.19.17,8.73,6.05,10.2,5.83.21,13.84-2.74,14-8.19l2.61-41.73A3.42,3.42,0,0,0,412.41,171Z" style="fill:#ffbe9d"></path><path d="M387.53,185.72a1.24,1.24,0,0,0,1.18,1.27,1.19,1.19,0,0,0,1.3-1.1,1.25,1.25,0,0,0-1.18-1.28A1.2,1.2,0,0,0,387.53,185.72Z" style="fill:#263238"></path><path d="M385.76,182.85c.16.16,1.11-.52,2.45-.49s2.31.71,2.46.54-.08-.36-.5-.68a3.41,3.41,0,0,0-2-.64,3.34,3.34,0,0,0-1.95.59C385.83,182.48,385.69,182.78,385.76,182.85Z" style="fill:#263238"></path><path d="M399.94,185.72a1.25,1.25,0,0,0,1.19,1.27,1.19,1.19,0,0,0,1.3-1.1,1.26,1.26,0,0,0-1.18-1.28A1.21,1.21,0,0,0,399.94,185.72Z" style="fill:#263238"></path><path d="M399.06,183c.15.17,1.11-.52,2.45-.49s2.31.71,2.46.55-.08-.37-.5-.69a3.44,3.44,0,0,0-2-.64,3.25,3.25,0,0,0-1.95.6C399.13,182.66,399,183,399.06,183Z" style="fill:#263238"></path><path d="M393.92,192.83a8.27,8.27,0,0,0-2.17-.43c-.34,0-.67-.11-.72-.35a1.73,1.73,0,0,1,.24-1c.34-.82.69-1.69,1.06-2.59a45.57,45.57,0,0,0,2.38-6.78,43.94,43.94,0,0,0-2.92,6.57c-.36.91-.69,1.78-1,2.61a1.94,1.94,0,0,0-.2,1.34.84.84,0,0,0,.55.51,2.22,2.22,0,0,0,.58.09A9.52,9.52,0,0,0,393.92,192.83Z" style="fill:#263238"></path><path d="M392.74,208.68a24.77,24.77,0,0,0,13.07-3.27s-3.39,6.81-13.1,5.74Z" style="fill:#eb996e"></path><path d="M394.09,196.09a3.57,3.57,0,0,1,2.6-1.67,1.53,1.53,0,0,1,1.5.86,2.44,2.44,0,0,1-.25,2.23,2.06,2.06,0,0,1-2,1,3.52,3.52,0,0,1-1.67-1.12,1.21,1.21,0,0,1-.33-.49.82.82,0,0,1,.12-.7" style="fill:#eb996e"></path><path d="M397.85,193.82c-.22,0-.24,1.44-1.51,2.45s-2.8.83-2.82,1,.34.29,1,.32a3.62,3.62,0,0,0,2.35-.78,3.15,3.15,0,0,0,1.17-2.06C398.11,194.17,398,193.81,397.85,193.82Z" style="fill:#263238"></path><path d="M398.4,178.37c.16.35,1.48.06,3.06.12s2.89.37,3.07,0c.08-.16-.17-.49-.71-.8a5.15,5.15,0,0,0-2.32-.59,5,5,0,0,0-2.35.48C398.59,177.89,398.33,178.2,398.4,178.37Z" style="fill:#263238"></path><path d="M386,179.55c.29.31,1.44,0,2.82,0s2.55.23,2.82-.08c.12-.15-.06-.46-.57-.76a4.65,4.65,0,0,0-2.28-.52,4.57,4.57,0,0,0-2.26.58C386,179.09,385.83,179.4,386,179.55Z" style="fill:#263238"></path><path d="M418.85,203.9a.65.65,0,0,1-.17,0,3.53,3.53,0,0,1-.47-.14,4.42,4.42,0,0,1-1.54-.9,2.82,2.82,0,0,1-.92-2.45,1.87,1.87,0,0,1,.86-1.35.93.93,0,0,1,.9,0,.74.74,0,0,1,.39.84.62.62,0,0,1-.33.38.93.93,0,0,1-.45.11,1.83,1.83,0,0,1-.85-.18,4,4,0,0,1-1.31-.89,3.7,3.7,0,0,1-.55-4.6l.1-.14s-.1.21-.25.6a4.1,4.1,0,0,0-.22,1.72,3.74,3.74,0,0,0,2.32,3.1,1.78,1.78,0,0,0,.75.16.57.57,0,0,0,.57-.33.53.53,0,0,0-.28-.57.72.72,0,0,0-.68,0,1.69,1.69,0,0,0-.76,1.18,2.68,2.68,0,0,0,.16,1.33,2.77,2.77,0,0,0,.66,1,4.7,4.7,0,0,0,1.47.94C418.63,203.81,418.85,203.88,418.85,203.9Z" style="fill:#263238"></path><path d="M395.87,160.47a3,3,0,0,1-1-3.69c-.4-.58.09-1.43.76-1.66a3.44,3.44,0,0,1,2.07.17c-.17-.33.32-.6.69-.66l2.57-.37a4,4,0,0,1-2.65-2.32,6.2,6.2,0,0,1-.32-3.59,1.3,1.3,0,0,1,.46-.91,9.59,9.59,0,0,1,1.76,3,2.51,2.51,0,0,1,1.82.95.71.71,0,0,1,1.06-.27c.56-1.51,1.62-3.1,3.22-3.26-.49-.71.43-1.55,1.21-1.93a5,5,0,0,1,1.8-.59,1.69,1.69,0,0,1,1.63.76,1.06,1.06,0,0,1-.63,1.51,1.76,1.76,0,0,1,.6,2.09,1.74,1.74,0,0,1,2.12-.4,6.7,6.7,0,0,1,3.54-.47,1.66,1.66,0,0,1,.86.31c.18.16.29.38.48.52a1.81,1.81,0,0,0,.95.27,3.79,3.79,0,0,1,2.12.81,1.84,1.84,0,0,1,.55,2.08c1.77.59,3.55-1.42,5.38-1a3.55,3.55,0,0,1,2.25,2.21,6.24,6.24,0,0,1-2.87.38,1.22,1.22,0,0,1-1.19.92.72.72,0,0,1-.42,1.11,6.28,6.28,0,0,1,3.41.1c1.7.43,3.56,1.35,3.94,3.06a5.54,5.54,0,0,1,0,1.86c-.12.92-.61,2.12-1.52,1.94-.56-.11-.84-.72-1.14-1.21a4.81,4.81,0,0,0-2.95-2.19c-.44.42.36,1,.71,1.47s.19,1.16.27,1.75a9,9,0,0,0,1.16,2.46c.83,1.79.35,3.88-.14,5.8-.13.51-.73,1.15-1.05.72a1.44,1.44,0,0,1,1.07,1.49,4.31,4.31,0,0,1-.64,1.87c-.13.25-.3.53-.58.59s-.72-.32-.93-.68l-1.71-2.89a4.42,4.42,0,0,1-.07,2,3.72,3.72,0,0,1-2.3,2.87,4.78,4.78,0,0,1-2.61-.23" style="fill:#263238"></path><path d="M414.59,190.94c-.38-.16-1.91.44-2.15.11-1.25-1.66-1.87-6.38-2.16-8.44s1-4.33.86-6.4a8,8,0,0,0-1.5-4.68,6.13,6.13,0,0,0-2.48-1.64,9.74,9.74,0,0,0-8.84,1.06c-1.05.72-2.05,1.69-3.32,1.79s-2.4-.69-3.47-1.35-2.41-1.26-3.57-.74a3.45,3.45,0,0,0-1.16.92,16.91,16.91,0,0,0-2.53,6.42,13.3,13.3,0,0,1,.67-7,17.17,17.17,0,0,1,13.48-9.7c11.51-1.71,16.8,4.75,18.78,9.35.85,2,1.51,7.12.82,11.07A28.71,28.71,0,0,1,414.59,190.94Z" style="fill:#263238"></path><path d="M417.92,172.2c-.17.05-.62-1.25-1.74-3.11A22,22,0,0,0,414,166a13.74,13.74,0,0,0-3.48-2.92,13.9,13.9,0,0,0-4.29-1.46,15.45,15.45,0,0,0-3.75-.18c-2.16.16-3.45.64-3.52.46s.26-.28.84-.53a10.72,10.72,0,0,1,2.58-.75,13.84,13.84,0,0,1,4-.06A13.67,13.67,0,0,1,411,162.1a13.35,13.35,0,0,1,3.72,3.24,16.92,16.92,0,0,1,2.13,3.36C417.88,170.75,418.06,172.17,417.92,172.2Z" style="fill:#0EA5E9"></path><path d="M406.84,162.07a4.8,4.8,0,0,1-.69.07,15.05,15.05,0,0,0-1.87.29,13.85,13.85,0,0,0-9.54,7.37,14.34,14.34,0,0,0-.75,1.74,4.54,4.54,0,0,1-.24.65s0-.06,0-.18.06-.29.13-.5a10.89,10.89,0,0,1,.69-1.78,13.43,13.43,0,0,1,9.64-7.46,12.11,12.11,0,0,1,1.9-.22c.23,0,.4,0,.52,0S406.84,162.06,406.84,162.07Z" style="fill:#455a64"></path><path d="M409.88,163.49a11.84,11.84,0,0,1-1.35.72,32.48,32.48,0,0,0-3.16,1.89,32.91,32.91,0,0,0-2.92,2.25,12.77,12.77,0,0,1-1.16,1,1.57,1.57,0,0,1,.26-.32c.18-.2.45-.47.79-.8a24.26,24.26,0,0,1,6.12-4.17c.43-.2.78-.35,1-.44A2.71,2.71,0,0,1,409.88,163.49Z" style="fill:#455a64"></path><path d="M416,168.73a1.07,1.07,0,0,1,0,.39c0,.24-.1.6-.2,1a17.48,17.48,0,0,1-2.84,6.27c-.27.36-.49.64-.65.82s-.26.29-.27.28.3-.46.78-1.19a22.7,22.7,0,0,0,1.66-3,22,22,0,0,0,1.16-3.22C415.88,169.26,416,168.73,416,168.73Z" style="fill:#455a64"></path><path d="M412.63,182.58s.48-.56,1.16-1.52a15.91,15.91,0,0,0,1.09-1.75,18,18,0,0,0,1-2.32,17.25,17.25,0,0,0,.63-2.44,15.83,15.83,0,0,0,.23-2.05c.05-1.18,0-1.91,0-1.91a1.85,1.85,0,0,1,.09.51,10.84,10.84,0,0,1,.05,1.4,13.81,13.81,0,0,1-.18,2.08,16.15,16.15,0,0,1-.62,2.49,17,17,0,0,1-1.05,2.34,13.65,13.65,0,0,1-1.14,1.75,11.22,11.22,0,0,1-.91,1.07A2.53,2.53,0,0,1,412.63,182.58Z" style="fill:#455a64"></path><path d="M376.12,171.89s.18.19.51.51a5,5,0,0,0,1.64,1.08,3.29,3.29,0,0,0,2.78-.12,2.41,2.41,0,0,0,1.05-1.27,2,2,0,0,0-.15-1.7.85.85,0,0,0-.71-.39.58.58,0,0,0-.55.47,2.13,2.13,0,0,0,.36,1.57,2.6,2.6,0,0,0,1.16,1,2.18,2.18,0,0,0,1.3.11,2.61,2.61,0,0,0,1.59-1,3.34,3.34,0,0,0,.35-.64s0,.07,0,.19a1.85,1.85,0,0,1-.23.5,2.66,2.66,0,0,1-1.63,1.15,2.31,2.31,0,0,1-1.41-.1,2.73,2.73,0,0,1-1.27-1,2.39,2.39,0,0,1-.4-1.75,1,1,0,0,1,.27-.45.81.81,0,0,1,.5-.19,1,1,0,0,1,.89.49,2.1,2.1,0,0,1,.18,1.91,2.57,2.57,0,0,1-1.15,1.37,3.41,3.41,0,0,1-3,.1,4.94,4.94,0,0,1-1.64-1.17,5.41,5.41,0,0,1-.35-.42C376.14,172,376.11,171.89,376.12,171.89Z" style="fill:#263238"></path><path d="M435.1,169.83l-.26,0-.75.1a8,8,0,0,1-2.79-.15,4.29,4.29,0,0,1-1.71-.92,2.86,2.86,0,0,1-1-2,2.35,2.35,0,0,1,.24-1.21,2.07,2.07,0,0,1,.9-.93,2.74,2.74,0,0,1,2.62,0,1.22,1.22,0,0,1-.08,2.26,2.61,2.61,0,0,1-1.28.18,6.58,6.58,0,0,1-1.19-.22,6.16,6.16,0,0,1-4.45-4.92,5.45,5.45,0,0,1-.08-.76.76.76,0,0,1,0-.26s0,.37.15,1A6.15,6.15,0,0,0,431,167a2.42,2.42,0,0,0,1.16-.17,1.1,1.1,0,0,0,.67-.89,1.15,1.15,0,0,0-.62-1,2.5,2.5,0,0,0-2.39,0,2,2,0,0,0-1,1.93,2.69,2.69,0,0,0,.89,1.87,4.13,4.13,0,0,0,1.63.9,8.21,8.21,0,0,0,2.73.22l.76-.06A.86.86,0,0,1,435.1,169.83Z" style="fill:#263238"></path><path d="M390.48,148.22a5.84,5.84,0,0,0-.26.89,3.1,3.1,0,0,0,.64,2.33,3.33,3.33,0,0,0,3.32,1,2.12,2.12,0,0,0,1.57-1.27,1.32,1.32,0,0,0-.15-1,.85.85,0,0,0-.92-.4,1.32,1.32,0,0,0-.81.71,1.49,1.49,0,0,0-.05,1.06,3.72,3.72,0,0,0,1.3,1.69,6.53,6.53,0,0,0,3.4,1.38,6.73,6.73,0,0,0,2.49-.19c.57-.16.87-.31.88-.28l-.21.11a4.56,4.56,0,0,1-.64.26,6.51,6.51,0,0,1-2.54.27A6.75,6.75,0,0,1,395,153.4a3.89,3.89,0,0,1-1.38-1.79,1.64,1.64,0,0,1,.06-1.23,1.45,1.45,0,0,1,1-.83,1.09,1.09,0,0,1,1.17.5,1.51,1.51,0,0,1,.17,1.22,1.85,1.85,0,0,1-.71.95,2.8,2.8,0,0,1-1,.46,3.48,3.48,0,0,1-3.5-1.14,3.13,3.13,0,0,1-.6-2.45,2.57,2.57,0,0,1,.23-.66A1.72,1.72,0,0,1,390.48,148.22Z" style="fill:#263238"></path><path d="M412.22,189.47a3,3,0,0,1,4.35-2.44c1,.6,1.78,1.8,1.66,4.08-.34,6.09-6.38,4.5-6.38,4.32S412.06,192,412.22,189.47Z" style="fill:#ffbe9d"></path><path d="M413.84,193.23s.1.08.28.17a1.06,1.06,0,0,0,.79.06,2.64,2.64,0,0,0,1.34-2.29,3.62,3.62,0,0,0-.21-1.53,1.26,1.26,0,0,0-.76-.86.55.55,0,0,0-.64.26c-.09.16-.06.29-.09.3s-.12-.11-.06-.36a.67.67,0,0,1,.26-.37.78.78,0,0,1,.59-.12,1.49,1.49,0,0,1,1.06,1,3.72,3.72,0,0,1,.27,1.72,2.74,2.74,0,0,1-1.69,2.54,1.15,1.15,0,0,1-1-.21C413.84,193.38,413.82,193.24,413.84,193.23Z" style="fill:#eb996e"></path><path d="M433.4,276.22c-.16-4.09.8-40.59.8-40.59s-1.78-17.8-7.83-19.91c-2.14-.75-6.76-1-11.84-1,0-1.1-.16-2.32-.83-2.78-1.33-.89-21.9,2.3-21.9,2.3l-.06,1.72c-5.55,1.11-17.69,4.09-17.87,8.93-.24,6.28,6.13,33.31,8.14,38.26s1.19,14.73.88,19,3.72,5.1,7.29,6.33,19.47,5,28.52,2.48,13.74-3.74,14.74-6C435.61,280.14,433.56,280.32,433.4,276.22Z" style="fill:#0EA5E9"></path><path d="M340.52,214.07s-.77-2.53,3.46-.3,10.33,7.46,10.33,7.46l3.4-.82s4.28,3.27,4.9,5,2,8.88,1.6,10.33.66,4.59.66,4.59L356,244.63l-.94-2.58s-8.13-8.67-8.35-9.63a2.32,2.32,0,0,1,1.32-3s-.8-3.92.62-5.07c0,0-1-2.47-.57-3.31Z" style="fill:#ffbe9d"></path><path d="M356.59,233.83a1.73,1.73,0,0,1-.15-.57,9.12,9.12,0,0,1-.09-1.65,10.83,10.83,0,0,1,1.63-5.38l0,.3a4,4,0,0,1-1.38-2.21l0-.11.32.17a5.36,5.36,0,0,1-4.05-.19,5,5,0,0,1-1.47-1,1,1,0,0,1-.28-.43.49.49,0,0,1,.25-.52,5.45,5.45,0,0,1,.74-.23,17.85,17.85,0,0,1,2.91-.67,19.88,19.88,0,0,1-2.82,1,5.18,5.18,0,0,0-.64.23c-.07.05-.07.07-.06.12a.65.65,0,0,0,.17.23,5.09,5.09,0,0,0,1.38.91,5,5,0,0,0,3.7.15l.26-.1.06.27,0,.1a3.69,3.69,0,0,0,1.21,2l.16.13-.11.17a11.4,11.4,0,0,0-1.73,5.15C356.53,233,356.66,233.83,356.59,233.83Z" style="fill:#eb996e"></path><path d="M349,232.48s.15,0,.39-.16a1.36,1.36,0,0,0,.71-.8l.07-.2.16.15a18.67,18.67,0,0,0,2.56,2.11c.54.33,1.21.89,1.71.59a1,1,0,0,0,.42-.8,2.44,2.44,0,0,0-.3-1.05,9.5,9.5,0,0,0-2-2.95,3,3,0,0,0-2.66-.68,7.42,7.42,0,0,0-1.83.77,2.52,2.52,0,0,1-.68.33,2.27,2.27,0,0,1,.58-.49,6.26,6.26,0,0,1,1.85-.94,3.17,3.17,0,0,1,1.48-.07,3.41,3.41,0,0,1,1.53.74,9.34,9.34,0,0,1,2.19,3.08,2.87,2.87,0,0,1,.34,1.28,1.46,1.46,0,0,1-.65,1.18,1.31,1.31,0,0,1-1.28-.06,9.55,9.55,0,0,1-.91-.59,15.2,15.2,0,0,1-2.52-2.27l.22,0a1.44,1.44,0,0,1-.91.84C349.12,232.53,349,232.5,349,232.48Z" style="fill:#eb996e"></path><path d="M354.9,232.06s.21,0,.49-.11a1.2,1.2,0,0,0,.67-1,3.77,3.77,0,0,0-.59-1.92,9.67,9.67,0,0,0-1.53-2.05,23,23,0,0,0-1.91-1.75,4.49,4.49,0,0,0-1.78-1,2.53,2.53,0,0,0-1.81.29s.08-.2.39-.38a2.25,2.25,0,0,1,1.49-.24,4.46,4.46,0,0,1,2,1,18.35,18.35,0,0,1,2,1.76,9.21,9.21,0,0,1,1.57,2.18,3.93,3.93,0,0,1,.54,2.15,1.36,1.36,0,0,1-.94,1.18C355.08,232.22,354.89,232.08,354.9,232.06Z" style="fill:#eb996e"></path><path d="M352.51,221.4c-.06,0-.25-.2-.64-.46a3.09,3.09,0,0,0-1.66-.57,3.13,3.13,0,0,0-1.69.49c-.4.25-.61.47-.66.43s.06-.34.45-.7a2.8,2.8,0,0,1,3.78.09C352.46,221.05,352.56,221.37,352.51,221.4Z" style="fill:#eb996e"></path><path d="M379.29,219.65s-7.09,1.93-9.41,13.42c-1.65,8.17,0,29.61,0,29.61s-7.95,3.87-7.5,4,4.19,21.45,13.32,19.68,10.45-15.24,10.45-15.24Z" style="fill:#0EA5E9"></path><path d="M385.65,283.9s-.1-.15-.24-.47a10.27,10.27,0,0,1-.51-1.41,22.87,22.87,0,0,1-.82-5.46,79.53,79.53,0,0,0-.5-8.12,15.34,15.34,0,0,0-1.39-4.51c-.77-1.44-1.95-2.74-2.84-4.32a19.5,19.5,0,0,1-1.76-4.92,27.56,27.56,0,0,1-.51-4.83,76.55,76.55,0,0,1,.53-8.17c.23-2.31.38-4.18.4-5.47s0-2,0-2a2,2,0,0,1,.07.52c0,.34.08.85.07,1.5a53.38,53.38,0,0,1-.24,5.5,79.12,79.12,0,0,0-.43,8.13,27.3,27.3,0,0,0,.53,4.74,19.39,19.39,0,0,0,1.72,4.79c.85,1.52,2,2.82,2.83,4.33a15.75,15.75,0,0,1,1.42,4.67,73.43,73.43,0,0,1,.4,8.17,25.3,25.3,0,0,0,.66,5.42,14.76,14.76,0,0,0,.42,1.43A3,3,0,0,1,385.65,283.9Z" style="fill:#263238"></path><path d="M347.89,267.76c-.3.06-2.18-.6-2.46,1s.82,1.64,2.78,2,10.14,3.39,10.14,3.39-3.19,1.13-3,2.82.82,1.57,2.28,1.62l2.12.09s-.13,3.65,1.47,3.86A2.4,2.4,0,0,0,364,285c2.86-.11,11.81-2.27,11.81-2.27l1-11s-7.88-3.08-9.35-2.84a4.77,4.77,0,0,0-2.47,1.3Z" style="fill:#ffbe9d"></path><polygon points="376.84 271.77 401.29 273.03 399.85 286.71 375.84 282.73 376.84 271.77" style="fill:#ffbe9d"></polygon><path d="M380.37,270.1a12.44,12.44,0,0,1-1-1.67c-.61-1-1.49-2.44-2.47-4a66,66,0,0,1-3.49-5.66,7,7,0,0,1,1.24,1.51c.72,1,1.67,2.34,2.65,3.89a45,45,0,0,1,2.36,4.08A6,6,0,0,1,380.37,270.1Z" style="fill:#263238"></path><path d="M414,265.71a2.39,2.39,0,0,1-.75.14,12,12,0,0,1-2.07.09,19,19,0,0,1-12.44-5.16,14.13,14.13,0,0,1-1.41-1.53c-.3-.39-.45-.61-.42-.63s.75.78,2.06,1.91a21,21,0,0,0,5.7,3.53,21.24,21.24,0,0,0,6.53,1.55C412.92,265.73,414,265.62,414,265.71Z" style="fill:#263238"></path><g style="opacity:0.2"><path d="M408.15,265.36a26.7,26.7,0,0,1-4.7-2.18l-5.66-3.11a9.61,9.61,0,0,0,15.47,5.52A8.91,8.91,0,0,1,408.15,265.36Z"></path><path d="M397.68,260l.11.06c0-.07,0-.14-.05-.21Z"></path></g><g style="opacity:0.30000000000000004"><path d="M406.52,288c-7.4-.48-14.84-3.71-23.46-4.05A138.13,138.13,0,0,0,402,289.14a45.57,45.57,0,0,0,13.82.84c4.59-.56,9.16-1.92,12.39-5.24C423.62,289,413.91,288.45,406.52,288Z"></path></g><path d="M362.42,266.72,356,244.63l8.84-4.29,9,19.42S369.29,269.91,362.42,266.72Z" style="fill:#ffbe9d"></path><path d="M401.29,273c.2-.15,14.18-2.38,14.18-2.38l2.78-5.22s4.39-31.8,5.11-35.34c.81-4,2.24-14.59,2.24-14.59s10.08,1.91,11.51,10.85c1,6.1-1.4,37.25-2.55,43.56s-2.89,12.33-9.19,16.62c-4.25,2.9-25.52.18-25.52.18Z" style="fill:#0EA5E9"></path><path d="M435,266.8a.87.87,0,0,1,0,.24c0,.19-.06.42-.11.72-.1.62-.26,1.55-.49,2.73s-.53,2.65-1,4.32a26.94,26.94,0,0,1-1.93,5.58,14.65,14.65,0,0,1-4.6,5.51,15.13,15.13,0,0,1-7.94,2.35c-1.47.09-3,.08-4.52.05l-4.72-.08a59.7,59.7,0,0,1-10-.94l-.21,0,0-.21c.23-2.19.46-4.49.71-6.83s.5-4.84.75-7.19l0-.18.17,0,14.4-2.61-.15.11a22.57,22.57,0,0,0,1.94-6.76c.33-2.25.64-4.4.93-6.42.58-4,1.09-7.59,1.51-10.55s.78-5.23,1-6.86l.28-1.82.09-.46c0-.11,0-.16,0-.16s0,0,0,.16,0,.28,0,.47c-.06.45-.13,1.06-.22,1.83-.21,1.63-.52,4-.9,6.88s-.87,6.52-1.41,10.56c-.28,2-.57,4.18-.89,6.43a22.92,22.92,0,0,1-2,6.91l0,.09-.11,0-14.4,2.65.2-.21q-.37,3.53-.75,7.19c-.24,2.34-.48,4.64-.71,6.83l-.19-.26a59.55,59.55,0,0,0,9.89.94l4.71.1c1.54,0,3,.05,4.49,0a14.78,14.78,0,0,0,7.75-2.24,14.43,14.43,0,0,0,4.53-5.35,27,27,0,0,0,2-5.49c.44-1.66.77-3.11,1-4.29s.43-2.07.56-2.72c.07-.29.12-.52.16-.7A.81.81,0,0,1,435,266.8Z" style="fill:#263238"></path><path d="M427.83,219.16a40.42,40.42,0,0,0-2.91,4.47,42.1,42.1,0,0,0-1.86,5,11.21,11.21,0,0,1,1.43-5.21A11.43,11.43,0,0,1,427.83,219.16Z" style="fill:#263238"></path><path d="M424.43,272.34a11.49,11.49,0,0,0-9-1.85,3,3,0,0,1,1.34-.5,8.75,8.75,0,0,1,3.47,0,8.66,8.66,0,0,1,3.18,1.35C424.12,271.87,424.47,272.3,424.43,272.34Z" style="fill:#263238"></path></g><g id="freepik--character-1--inject-4"><path d="M126.57,339.13c.21,1.45,22,46.85,22.2,56.52s-6.64,15.47-8.71,17.55-60.24,52.28-60.24,52.28l-5.7-7.06L116,391.62s-12-40.87-12-40.25-6.64-19.5-6.64-19.5Z" style="fill:#263238"></path><path d="M81.06,455.74l-10.67,8.39s19.94,7.49,20.17,11.44l-41.42-.14.12-3.35,2.94-7.72A32.82,32.82,0,0,1,59,453.54l8.74-9.31Z" style="fill:#0EA5E9"></path><path d="M58.15,462.31A1.68,1.68,0,0,0,57,464.23a1.63,1.63,0,0,0,1.9,1.19,1.79,1.79,0,0,0,1.23-2.05,1.69,1.69,0,0,0-2.11-1" style="fill:#e0e0e0"></path><g style="opacity:0.6000000000000001"><path d="M49.14,475.43l.12-3.35,39.67,1.39s1.84.81,1.63,2.1Z" style="fill:#fff"></path></g><path d="M70.71,464c0,.2-1,.29-2,.93s-1.53,1.5-1.72,1.42.12-1.25,1.34-2S70.75,463.85,70.71,464Z" style="fill:#263238"></path><path d="M73.94,465.2c0,.2-.83.54-1.52,1.39s-.9,1.76-1.1,1.75-.32-1.15.55-2.2S73.93,465,73.94,465.2Z" style="fill:#263238"></path><path d="M76.39,470.41c-.19,0-.47-1,.06-2.07S77.92,466.79,78,467s-.5.76-.91,1.68S76.59,470.39,76.39,470.41Z" style="fill:#263238"></path><path d="M72,462.88c-.19.07-.65-.78-1.51-1.53s-1.75-1.13-1.7-1.33,1.16-.1,2.17.8S72.22,462.84,72,462.88Z" style="fill:#263238"></path><path d="M75.17,460.48c-.19.07-.65-.78-1.52-1.53s-1.75-1.13-1.7-1.33,1.16-.1,2.17.8S75.35,460.44,75.17,460.48Z" style="fill:#263238"></path><path d="M77.68,347.59l4.91,10.86a26.24,26.24,0,0,0,8.92,10.71h0l13.1,28L59.42,448.77l16.85,16.47s45.06-39,51-43.84c14.12-11.52,6.68-36.85,5.53-41.37-.93-3.65-12.84-42.88-12.84-42.88l-27-11.1Z" style="fill:#263238"></path><path d="M84.41,196.85c-1.83-1.24-3.94-2.33-4.93-4.32-.9-1.82-.72-4.18-2.12-5.65-1.73-1.82-4.9-1.29-6.84-2.87-.93-.77-1.47-1.94-2.4-2.72-1.59-1.32-4-1.16-5.89-.44s-3.67,1.94-5.62,2.59c-2.69.9-5.75.74-8.17,2.2-2.68,1.62-3.79,4.64-5,7.61l-1.72,3.52a11.13,11.13,0,0,1-1.29,1.75,20.72,20.72,0,0,0-2.6,2.79,5,5,0,0,0,2.13,6.9,5.33,5.33,0,0,0-2.18,6,15.31,15.31,0,0,0,1.84,3.27,5.36,5.36,0,0,1,1,3.55A2.36,2.36,0,0,1,38,223.06a5.61,5.61,0,0,0,3.91,2.86A3.34,3.34,0,0,1,40,227.46c3.57,4.64,10.31,5.81,16,4.37s10.54-5,15.25-8.47l14.22-7.92c1.26-.66,1.39-2.43,1-3.8s-1.1-2.71-.94-4.12c.21-1.93,2-3.4,2.27-5.33C88,200,86.24,198.1,84.41,196.85Z" style="fill:#263238"></path><path d="M51.94,220.14a65.14,65.14,0,0,1-5.42-9.81,22.67,22.67,0,0,1-1.87-10.94c.06-.56.8-4.43,1.36-4.51s.22,3.41.51,3.7a19.24,19.24,0,0,1,4.87,10.33,50.84,50.84,0,0,1,.55,11.23" style="fill:#263238"></path><path d="M83.2,218.45c-.79-4.27-3.15-12.94-5.37-20.76a16.77,16.77,0,0,0-19.4-11.85l-.85.17c-9.08,2.37-12.14,11.39-9.53,20.4l8.86,36,21.68-2.36s-2.31-9.64-2.29-9.64S84.85,227.3,83.2,218.45Z" style="fill:#ffbe9d"></path><path d="M76.3,230.43a21.79,21.79,0,0,1-12.17-1.11s4.08,5.86,12.73,3.31Z" style="fill:#eb996e"></path><path d="M76.78,204.76a1.29,1.29,0,0,1-1,1.51,1.23,1.23,0,0,1-1.52-.88,1.28,1.28,0,0,1,1-1.51A1.23,1.23,0,0,1,76.78,204.76Z" style="fill:#263238"></path><path d="M76.67,201.73c-.12.2-1.22-.32-2.57,0s-2.22,1.14-2.4,1,0-.39.39-.79a3.54,3.54,0,0,1,1.87-1,3.38,3.38,0,0,1,2.09.25C76.53,201.37,76.73,201.64,76.67,201.73Z" style="fill:#263238"></path><path d="M64.46,207.85a1.28,1.28,0,0,1-1,1.51,1.24,1.24,0,0,1-1.53-.88,1.29,1.29,0,0,1,1-1.51A1.21,1.21,0,0,1,64.46,207.85Z" style="fill:#263238"></path><path d="M63.5,204.93c-.13.19-1.22-.32-2.58-.05s-2.21,1.15-2.39,1,0-.39.38-.79a3.5,3.5,0,0,1,1.88-1,3.33,3.33,0,0,1,2.09.24C63.36,204.57,63.56,204.84,63.5,204.93Z" style="fill:#263238"></path><path d="M70.44,214.38a8.74,8.74,0,0,1,2.12-.84c.34-.1.65-.24.66-.49a1.73,1.73,0,0,0-.43-1l-1.55-2.43c-2.17-3.47-3.81-6.35-3.67-6.44a47.28,47.28,0,0,1,4.18,6.13l1.51,2.46a2.06,2.06,0,0,1,.45,1.32.87.87,0,0,1-.47.62,2.3,2.3,0,0,1-.57.2A9.31,9.31,0,0,1,70.44,214.38Z" style="fill:#263238"></path><path d="M62.33,199.44c-.06.39-1.45.49-3,1s-2.75,1.2-3,.91c-.12-.14,0-.53.48-1a5.51,5.51,0,0,1,4.6-1.46C62,199,62.35,199.25,62.33,199.44Z" style="fill:#263238"></path><path d="M75.21,197.34c-.18.35-1.17.22-2.3.43s-2,.62-2.32.34c-.12-.14,0-.48.32-.85a3.25,3.25,0,0,1,1.77-.88,3.19,3.19,0,0,1,1.95.26C75.09,196.87,75.29,197.17,75.21,197.34Z" style="fill:#263238"></path><path d="M50.08,212.8c-.17,0-6.42-.59-5,5.41s7.13,3.36,7.1,3.18S50.08,212.8,50.08,212.8Z" style="fill:#ffbe9d"></path><path d="M49.79,219.55s-.09.09-.25.22a1.09,1.09,0,0,1-.78.19c-.68-.08-1.45-1-1.73-2a3.61,3.61,0,0,1-.06-1.56,1.27,1.27,0,0,1,.6-1,.56.56,0,0,1,.69.14c.12.15.11.28.14.28s.1-.13,0-.37a.7.7,0,0,0-.32-.32.88.88,0,0,0-.62,0,1.51,1.51,0,0,0-.87,1.19,3.58,3.58,0,0,0,0,1.75,2.79,2.79,0,0,0,2.13,2.24,1.17,1.17,0,0,0,.92-.38C49.81,219.69,49.81,219.55,49.79,219.55Z" style="fill:#eb996e"></path><path d="M71.56,188.72c.84-.77-2.82-3.2-5.47-3.7-4-.77-9.72-.44-12.81,1.3-3.71,2.1-6.55,4.88-7.68,9A24.25,24.25,0,0,0,45.87,208a7.33,7.33,0,0,0,1.73,3.46c1.15,1.12,3,1.56,3.33,3.4A2.53,2.53,0,0,0,52,216.51c1.38.9,2.45-.52,2.8-1.77.75-2.66.22-5.49-.32-8.2a17.75,17.75,0,0,0-1.75-5.6c-.53-.93-1.23-1.75-1.71-2.71a3.71,3.71,0,0,1-.3-3.09,3.8,3.8,0,0,1,.37-.61,6.4,6.4,0,0,1,5.9-2.67c3.66.38,9.84.76,11.07-.74a9.55,9.55,0,0,0,2-3.37Z" style="fill:#263238"></path><path d="M53.4,185.43a13.55,13.55,0,0,1,10.24-1.89,7,7,0,0,1,4.57,3.1,4,4,0,0,1-.84,5.12l-.1.1c-2.35,1.48-4.09,1.54-6.85,1.27-2.32-.22-4.54-1.08-6.86-1.29a12.52,12.52,0,0,0-7.17,1.51A20.54,20.54,0,0,1,53.4,185.43Z" style="fill:#263238"></path><path d="M43.1,229.76s.22,0,.61-.16a3.14,3.14,0,0,0,1.39-1,3.92,3.92,0,0,0,.83-2.59,7.55,7.55,0,0,0-1.16-3.49c-.69-1.2-1.68-2.39-2.49-3.86a7.59,7.59,0,0,1-.9-2.44,4.9,4.9,0,0,1,.24-2.77,5.91,5.91,0,0,1,1.89-2.23,15.65,15.65,0,0,0,2.23-1.9,8.68,8.68,0,0,0,1.78-5.69c0-2.11-.32-4.18-.38-6.22a11,11,0,0,1,1.08-5.75,7.36,7.36,0,0,1,4.11-3.33,9.62,9.62,0,0,1,4.61-.38A14.25,14.25,0,0,1,63,190.61c.63.47,1.09.87,1.4,1.14a2.91,2.91,0,0,1,.45.45,3.66,3.66,0,0,1-.5-.38c-.33-.25-.81-.63-1.45-1.07a14.7,14.7,0,0,0-6-2.54,9.32,9.32,0,0,0-4.44.42,7,7,0,0,0-3.87,3.17,10.74,10.74,0,0,0-1,5.55c.06,2,.43,4.07.39,6.24a9.09,9.09,0,0,1-1.9,6,15.8,15.8,0,0,1-2.29,1.95A5.42,5.42,0,0,0,42,213.56a4.61,4.61,0,0,0-.24,2.54,8,8,0,0,0,.84,2.34c.78,1.43,1.75,2.63,2.44,3.87A7.52,7.52,0,0,1,46.18,226a4.1,4.1,0,0,1-.94,2.71,3.21,3.21,0,0,1-1.51,1A1.88,1.88,0,0,1,43.1,229.76Z" style="fill:#455a64"></path><path d="M59.55,183.45a3.85,3.85,0,0,1,1.86-.29,7.16,7.16,0,0,1,6.75,5.36,3.69,3.69,0,0,1,.14,1.87c-.07,0-.09-.71-.45-1.78a7.37,7.37,0,0,0-6.46-5.13C60.27,183.38,59.56,183.52,59.55,183.45Z" style="fill:#455a64"></path><path d="M73.19,185.66a3.17,3.17,0,0,1,1.11,2,3.28,3.28,0,0,1,0,2.29c-.13,0-.08-1-.38-2.18S73.08,185.73,73.19,185.66Z" style="fill:#455a64"></path><path d="M54.35,234.85l.85,2.82S48.62,253.38,51,268s30.38,91.76,30.38,91.76,6.12-21.75,19-20.39,27.87,2,27.87,2l-25.15-67.65L78.62,238.27S62.5,232.47,54.35,234.85Z" style="fill:#0EA5E9"></path><path d="M57.52,251.05c.17-1.47-.26.6,0,0Z" style="fill:#0EA5E9"></path><path d="M128.39,243l-16.33-1.48-2.72,21L75.53,246.59s-13.06-6.76-18,4.46c-3.27,10.79.82,18.25,11.84,22.39,15,5.66,45.25,14.58,49,13.88,5.28-1,8.65-4.52,9.56-12.48C128.46,269.92,128.39,243,128.39,243Z" style="fill:#0EA5E9"></path><path d="M72.34,216.72l-3.41.55a1.28,1.28,0,0,0-.52.17,1,1,0,0,0-.34.71,2.5,2.5,0,0,0,1,2.22,3,3,0,0,0,2.45.43A1.86,1.86,0,0,0,73,219.59,5.61,5.61,0,0,0,72.34,216.72Z" style="fill:#eb996e"></path><path d="M72.83,220.05s-.3.69-1.39,1a2.77,2.77,0,0,1-1.93-.17A3.06,3.06,0,0,1,68,219.11a3.17,3.17,0,0,1-.16-1.25,1.11,1.11,0,0,1,.09-.36.63.63,0,0,1,.32-.29,2.3,2.3,0,0,1,.58-.13l1.81-.25a5.62,5.62,0,0,1,1.69-.09,5.63,5.63,0,0,1-1.63.46l-1.79.35a2.46,2.46,0,0,0-.45.11c-.08,0-.09.06-.11.24a2.67,2.67,0,0,0,.14,1,2.74,2.74,0,0,0,1.27,1.54,2.59,2.59,0,0,0,1.63.23A5.21,5.21,0,0,0,72.83,220.05Z" style="fill:#263238"></path><path d="M115.3,241.61v-8.72s-3.93-6.33-3.93-7a17.33,17.33,0,0,1,1-3.17l6.33-9.4s2.88-.09,3.07,1.06c0,0,2.88.77,3.17,2.3,0,0,2.4,1.15,2.69,2.78v.77a2.42,2.42,0,0,1,1.82,1.82c.48,1.63,0,8.25,0,8.25l-2.88,6.34.29,6Z" style="fill:#ffbe9d"></path><polygon points="112.7 222.31 110.25 222.31 106.35 216.01 117.35 210.51 118.75 213.32 112.7 222.31" style="fill:#263238"></polygon><path d="M153.38,207.22v-.08c-.22-1.78-2.49-9.12-4-13.74a80,80,0,0,0-2.88-7.65c-2-4.66-5.37-12.16-6.45-13.61l-.05-.07a2.3,2.3,0,0,0-3.88.42c-1.48,3-4.78,9.38-8.15,12.61C125,188,109.3,194.73,99,199a9.53,9.53,0,0,0-5,12.74h0a9.53,9.53,0,0,0,12.39,4.83c9.83-4.17,25.18-10.39,29.35-10.39,4.67,0,11.44,2.28,14.61,3.45A2.29,2.29,0,0,0,153.38,207.22Z" style="fill:#0EA5E9"></path><path d="M106.33,216.57a9.53,9.53,0,0,1-12.39-4.83h0A9.53,9.53,0,0,1,99,199l2.68-1.14s4.82,3.95,6.14,9.73.89,7.95.89,7.95Z" style="fill:#455a64"></path><path d="M151.45,209.82s0-.57-.16-1.59-.44-2.48-.87-4.27a117.34,117.34,0,0,0-4.27-13.76c-2.21-5.19-3.93-10-5.75-13.22a14.44,14.44,0,0,0-2.58-3.46,5.62,5.62,0,0,0-.93-.72,1.61,1.61,0,0,1-.33-.25s.14,0,.38.16a4.66,4.66,0,0,1,1,.66,13,13,0,0,1,2.77,3.42c1.93,3.21,3.7,8,5.91,13.22a97.94,97.94,0,0,1,4.15,13.86,35.15,35.15,0,0,1,.71,4.34,7.12,7.12,0,0,1,0,1.2C151.49,209.69,151.47,209.83,151.45,209.82Z" style="fill:#263238"></path><path d="M99.07,202.59a25.86,25.86,0,0,0-2.58,3,25,25,0,0,0-1.62,3.62,7.61,7.61,0,0,1,4.2-6.63Z" style="fill:#263238"></path><path d="M104.15,213.26a6.25,6.25,0,0,1-6.63-.47,31.56,31.56,0,0,0,3.28.67A29.61,29.61,0,0,0,104.15,213.26Z" style="fill:#263238"></path><path d="M101.41,208.2A7.53,7.53,0,0,1,99,209.51a7.7,7.7,0,0,1-2.65.83A7.53,7.53,0,0,1,98.76,209,7.7,7.7,0,0,1,101.41,208.2Z" style="fill:#263238"></path><path d="M108.7,215.54c-.09,0,0-1.11-.12-2.87a22.82,22.82,0,0,0-.46-3.06A25.67,25.67,0,0,0,107,206a24.77,24.77,0,0,0-3.47-5.92c-1.11-1.38-1.91-2.14-1.85-2.21a2.68,2.68,0,0,1,.63.47,16,16,0,0,1,1.5,1.5,21.27,21.27,0,0,1,3.67,6,23.07,23.07,0,0,1,1.12,3.71,18.55,18.55,0,0,1,.35,3.14,12.76,12.76,0,0,1-.08,2.12A2.23,2.23,0,0,1,108.7,215.54Z" style="fill:#263238"></path><path d="M128.94,188.84c.05.13-5,2.38-11.2,5s-11.34,4.67-11.39,4.54,5-2.38,11.19-5S128.88,188.71,128.94,188.84Z" style="fill:#fff"></path><path d="M135.66,179.31a22.32,22.32,0,0,1-3.54,5.77,22.32,22.32,0,0,1,3.54-5.77Z" style="fill:#fff"></path><path d="M76.27,465.24a2.48,2.48,0,0,1,.27-.27l.85-.75,3.29-2.86,12.15-10.45,18.06-15.44,10.68-9.1c.92-.79,1.87-1.57,2.79-2.4s1.78-1.71,2.64-2.62a57.44,57.44,0,0,0,5-5.77,25.88,25.88,0,0,0,5.49-13.66,37.68,37.68,0,0,0-1.73-13.76c-.6-2.15-1.25-4.23-1.85-6.26s-1.13-4-1.68-5.94c-1.09-3.82-2.23-7.34-3.27-10.56-2.11-6.43-3.83-11.63-4.89-15.26-.54-1.82-.93-3.23-1.18-4.2-.12-.46-.21-.82-.28-1.1a2,2,0,0,1-.08-.37,1.91,1.91,0,0,1,.13.36l.33,1.09c.3,1,.73,2.37,1.27,4.16,1.13,3.61,2.89,8.79,5.05,15.21,1.07,3.21,2.22,6.73,3.34,10.55.56,1.92,1.08,3.91,1.7,5.93s1.27,4.1,1.87,6.26c1.21,4.3,2.24,9,1.78,13.93a26.34,26.34,0,0,1-5.58,13.93,58.69,58.69,0,0,1-5,5.82c-.86.91-1.77,1.77-2.66,2.64s-1.88,1.61-2.8,2.4l-10.7,9.08L93.07,451.19,80.81,461.51l-3.35,2.79-.88.71A2.13,2.13,0,0,1,76.27,465.24Z" style="fill:#455a64"></path><path d="M78.62,238.27a7,7,0,0,1,.88,1.53c.52,1,1.18,2.49,2.1,4.23l.24.45-.49-.16c-2.7-.89-6-2.38-9.71-3.8a40.34,40.34,0,0,0-11.53-2.72c-3-.24-4.94-.14-4.94-.24a6.06,6.06,0,0,1,1.32-.13,33.35,33.35,0,0,1,3.64,0,37.62,37.62,0,0,1,11.7,2.6c3.7,1.44,7,2.95,9.66,3.91l-.25.29c-.9-1.8-1.49-3.31-1.94-4.33A13.47,13.47,0,0,1,78.62,238.27Z" style="fill:#263238"></path><path d="M107.72,285.36a1.58,1.58,0,0,1-.48-.05l-1.37-.25c-1.19-.23-2.9-.6-5-1.08-4.21-1-10-2.51-16.27-4.58s-11.82-4.3-15.8-6c-2-.85-3.58-1.56-4.68-2.07l-1.26-.6a1.92,1.92,0,0,1-.42-.24,1.49,1.49,0,0,1,.47.14l1.29.51,4.74,1.92c4,1.61,9.58,3.77,15.83,5.84s12,3.65,16.19,4.72l5,1.24,1.35.35A2.29,2.29,0,0,1,107.72,285.36Z" style="fill:#263238"></path><path d="M109.34,262.46a3.21,3.21,0,0,1-.64-.25l-1.78-.81-6.5-3.11c-5.49-2.62-13-6.33-21.55-10-2.13-.91-4.22-1.78-6.28-2.47a20.62,20.62,0,0,0-6.12-1.06,8.66,8.66,0,0,0-5.22,1.64,10.66,10.66,0,0,0-3.1,3.71A15.79,15.79,0,0,0,56.66,257c0,.84,0,1.5.07,1.95a4.36,4.36,0,0,1,0,.68,2.69,2.69,0,0,1-.13-.67c-.06-.45-.13-1.11-.16-2a15.19,15.19,0,0,1,1.36-7.08A10.91,10.91,0,0,1,61,246a9,9,0,0,1,5.47-1.77,20.87,20.87,0,0,1,6.28,1.05c2.09.7,4.19,1.57,6.33,2.48,8.52,3.72,16,7.48,21.5,10.18l6.43,3.25,1.74.91A3.69,3.69,0,0,1,109.34,262.46Z" style="fill:#263238"></path><path d="M115.93,272.9a23.7,23.7,0,0,1-6.67-9.8c.14-.07,1.3,2.33,3.14,5S116,272.79,115.93,272.9Z" style="fill:#263238"></path><path d="M124.41,340.79c-.13,0-5.39-12.63-11.75-28.34s-11.4-28.48-11.27-28.53,5.4,12.63,11.75,28.34S124.54,340.74,124.41,340.79Z" style="fill:#263238"></path><g style="opacity:0.30000000000000004"><path d="M62.84,270.93c11.06,11.17,29.67,17.64,45,14.11a348.56,348.56,0,0,1-45-14.11"></path></g><g style="opacity:0.30000000000000004"><path d="M109.32,262.43c1.32,3.22,3.71,5.86,6.05,8.44a5.68,5.68,0,0,0,2.43,1.84,1.93,1.93,0,0,0,2.45-1.22c.17-.9-.56-1.71-1.24-2.32a58.24,58.24,0,0,0-9.69-6.74"></path></g></g></svg>